<svg viewBox="-24.5625 164.55000000000018 1391.8749999999995 3003.0375" xmlns="http://www.w3.org/2000/svg" overflow="visible" xmlns:xlink="http://www.w3.org/1999/xlink" width="1391.8749999999995px" height="3003.0375px"><g id="Master/Character/Standing" stroke="none" stroke-width="1" fill="none" fill-rule="evenodd"><g id="Standing" transform="translate(-121.000000, 634.000000) scale(1 1)"><g id="Standing/Robot Dance 1" stroke="none" stroke-width="1" fill="none" fill-rule="evenodd"><path d="M354.965535,903.913804 C355.13454,915.405271 356.285995,941.794371 359.169094,952.918661 C327.049996,901.418626 278.922209,845.131094 271.602959,782.054179 C273.884037,781.429782 284.00511,780.496131 285.77217,779.169777 C302.389738,786.892279 299.245835,763.12492 301.701919,752.132185 C308.334146,728.85865 322.268417,705.966037 328.322624,682.538366 C344.237168,675.654285 312.278076,672.737484 307.634917,672.60102 C326.938577,651.10152 335.81788,621.545721 349.56235,596.465753 C369.75804,553.841785 387.845658,510.269439 403.99621,466.01379 C407.526331,493.743521 408.159353,521.773669 406.008279,549.656554 C399.367052,669.089275 354.515519,783.92639 354.965535,903.913804 Z M1469.7148,691.759922 C1459.72246,693.439708 1443.07043,695.030649 1433.09809,695.847471 C1446.18754,688.04152 1484.87409,673.170439 1460.49425,659.805779 C1452.977,657.059804 1444.91044,660.976926 1437.33018,662.188415 C1405.8491,667.371111 1366.97722,667.097638 1335.12913,664.486164 C1346.73853,654.954284 1362.02409,641.226025 1373.35448,631.361329 C1379.37568,626.119728 1385.21392,624.132562 1378.44068,616.305994 C1366.50228,605.183667 1345.15238,613.374467 1331.3489,618.262636 C1293.2716,639.60211 1250.278,662.749984 1209.4106,679.16889 C1208.98259,673.441319 1209.247,666.035921 1203.72682,662.188415 C1187.53326,654.554271 1175.61058,656.785805 1158.37999,654.753568 C1138.29731,651.742518 1120.4467,648.317739 1100.55802,643.004469 C1087.54957,633.079886 1079.61751,603.811992 1058.81679,607.083207 C1077.23942,560.705981 1049.16026,512.32033 1038.6119,467.912508 C1025.44845,422.465988 1018.53221,375.268013 1018.34421,328.014078 C1018.2152,252.35889 974.409705,194.309554 911.113541,155.488913 C886.160689,138.632142 869.404456,97.6305686 838.5114,89.41817 C834.582266,74.3373984 834.343918,67.7129511 830.8938,52.5173139 C829.161741,48.1524216 827.874697,24.4675304 823.518548,25.273553 C818.715384,1.81250244 794.235547,-7.59665808 773.052823,-12.5103526 C745.510882,-18.2202522 707.075568,-25.1367313 682.316722,-9.02511474 C675.145477,-3.05603127 671.995369,6.93923827 671.469351,15.8683195 C668.718257,27.7583804 662.996025,40.0756918 656.325797,50.3919959 C644.942417,46.5445245 651.38464,39.3745577 640.126021,37.7052 C537.323661,22.4623077 423.212252,97.9081213 356.511588,171.508244 C235.606455,295.709359 139.019155,465.263067 154.829695,642.27879 C150.57755,641.650466 131.730905,638.695376 132,644.652679 C132.925946,670.557323 137.690109,692.163513 139.005154,718.04754 C137.698109,752.338354 173.310326,756.469588 199.036206,764.926444 C197.452152,864.413787 233.582386,963.926655 290.132319,1045.70703 C303.870788,1061.79901 324.485493,1117.64098 349.56235,1095.39632 C352.517451,1091.93858 329.599367,1067.98604 325.522227,1062.06801 C311.599752,1044.53481 274.721066,957.722931 300.784683,940.384118 C306.578881,959.123899 362.685258,1049.23364 372.6866,998.088018 C385.970054,1005.8007 407.920344,1011.06376 423.799887,1010.26657 C453.651907,1026.44397 482.6999,1043.91434 511.36788,1062.06801 C524.721336,1088.3035 544.308006,1113.50128 560.717566,1138.69023 C447.152685,1401.11097 336.304787,1833.02789 190.160793,2080.19605 C177.418357,2096.33712 247.517129,2123.77134 259.898552,2129.69429 C236.220743,2168.1556 233.256266,2212.72443 215.24265,2254.13986 C211.811533,2253.58517 208.350414,2254.31461 205.255309,2255.97182 C183.034549,2271.02608 174.649263,2324.91866 173.382219,2351.4909 C174.408254,2363.34463 170.016104,2381.27054 179.602432,2389.99934 C178.262386,2391.45038 177.262352,2393.22245 176.550328,2395.03183 C169.804097,2400.28521 170.635126,2411.89449 174.241249,2419.09273 C186.929682,2445.43818 279.673852,2442.99361 309.770881,2448.62889 C416.380524,2457.66302 505.860197,2459.08559 612.45584,2449.21108 C625.539287,2446.47001 615.644949,2426.04946 609.184728,2420.51039 C612.16883,2418.69414 614.076896,2415.37776 612.770851,2411.11694 C588.538023,2341.78721 500.952961,2346.47804 447.95515,2309.45402 C461.890626,2301.39085 452.896319,2303.96403 444.14102,2307.09977 C434.848702,2301.25831 425.809393,2294.68446 417.436107,2287.42143 C423.867327,2283.44924 420.695218,2280.825 413.737981,2284.15119 C402.772606,2275.35367 394.232314,2261.75633 380.263837,2257.49256 C366.582369,2254.13986 366.582369,2248.28664 366.582369,2244.59718 C374.724647,2211.84478 383.618849,2178.2569 388.190005,2145.04111 C393.066172,2152.23543 435.138712,2094.58861 444.14102,2080.19605 C479.119215,2024.77684 479.024634,1970.1657 503.502471,1909.89759 C553.767189,1778.65237 656.731848,1503.57892 719.523994,1378.05636 C866.443015,1617.55897 794.883569,1941.47939 885.516667,2196.87173 C889.544804,2204.54416 897.119063,2233.32044 907.609422,2225.0187 C911.686561,2225.97395 916.021709,2226.48741 919.904842,2227.0372 C918.783804,2254.95641 916.692732,2282.801 912.055574,2310.42765 C907.736426,2311.56943 904.066301,2313.83729 902.164236,2317.80359 C894.889987,2312.45989 880.962511,2391.29499 879.77047,2399.32576 C879.75247,2409.68428 870.826165,2432.74968 878.978443,2438.90628 C867.233042,2443.71394 865.312976,2461.48571 873.574259,2470.62391 C898.103097,2503.60506 1017.66818,2494.54148 1061.77769,2500.06975 C1117.5576,2498.68547 1350.90808,2519.57825 1367.10964,2466.6419 C1370.33075,2454.55745 1364.80956,2439.30193 1353.57918,2434.65134 C1358.07333,2424.15636 1347.31096,2414.02364 1340.72774,2406.65948 C1301.90441,2366.26116 1242.2082,2359.89731 1190.51843,2342.31502 C1192.4455,2340.33972 1123.04511,2304.7658 1107.9996,2295.9722 C1108.99263,2284.02618 1084.18001,2296.00263 1084.11101,2295.9722 C1072.28061,2275.05488 1063.90034,2242.50991 1055.96807,2219.9452 C1070.60757,2215.40555 1105.8802,2211.37228 1112.41742,2196.87173 C1133.42814,2189.82173 1112.35275,2159.33942 1107.9996,2145.04111 C984.838391,1836.76053 1101.68605,1447.91021 919.904842,1156.94194 C953.225981,1137.85167 991.453512,1096.07215 958.539387,1061.02342 C951.952162,1052.59798 935.839539,1026.36631 936.104548,1030.9462 C929.984149,1005.97034 916.314529,962.948782 912.055574,937.694104 C896.418451,844.969361 906.667588,758.13012 919.904842,664.486164 C938.28247,734.94982 1001.62363,793.655604 1066.05984,825.849384 C1091.2077,836.229502 1124.41483,857.65537 1152.02377,850.895972 C1176.94163,843.521013 1222.19617,792.347903 1227.52936,767.769613 C1300.16884,776.410057 1375.59042,769.474925 1445.00979,746.632381 C1453.92109,743.260046 1464.46645,743.545504 1461.71136,730.8936 C1458.96326,720.156122 1439.36839,722.894662 1430.9431,724.888611 C1443.82154,717.747309 1477.25406,715.877768 1477.00658,697.205729 C1476.56304,693.314043 1473.69094,691.091345 1469.7148,691.759922 Z" id="Skin" fill="#ae5d29"/><path d="M1105.87547,2289.02761 C1110.34565,2293.4575 1144.65962,2319.8052 1191,2342 C1219.32237,2355.56505 1253.83515,2362.57366 1283,2376 C1314.46717,2390.48624 1340.08607,2411.40613 1355.73856,2426.53633 L1371.85158,2469.61085 C1369.40183,2485.22622 1296.95435,2495.12017 1220.91948,2497.64063 C1109.53533,2501.33287 971.139203,2490.63978 957.915472,2489.22961 C935.103472,2487.13461 864.026472,2489.47061 877.127472,2452.22361 C880.849794,2453.40206 882.025966,2429.45303 884.642017,2427.1444 L886.898404,2408.88878 C893.370249,2356.79533 897.166272,2328.76261 898.286472,2324.79061 C898.575472,2324.33561 898.874472,2323.88861 899.204472,2323.46461 C903.057472,2318.48361 909.574472,2317.08761 915.578472,2317.45461 C916.065472,2317.48461 916.555472,2317.54461 917.048472,2317.61961 C917.864472,2318.04461 918.652472,2318.54661 919.400472,2319.14461 L920.029138,2319.23105 C920.134361,2319.24583 920.240472,2319.26161 920.348472,2319.27961 C920.564472,2319.31461 920.757472,2319.37461 920.938472,2319.44561 C921.088472,2319.19661 921.219472,2318.92561 921.351472,2318.65561 C925.069472,2319.79261 928.853472,2321.32561 932.480472,2321.49961 L935.103048,2322.65428 L938.497525,2324.16773 L948.299128,2328.57544 L950.490413,2329.5504 C963.124342,2335.09464 994.834364,2346.989 1024,2343 C1052.2436,2339.1371 1075.96257,2311.06453 1084.69647,2303.67161 C1091.04147,2297.84661 1099.96047,2295.13161 1105.87547,2289.02761 Z M376.616472,2255.42961 C379.392036,2256.16228 391.655673,2263.61644 402.219944,2273.71761 C412.200896,2283.26103 420.128049,2295.16721 435,2306 C456.480128,2321.64621 538.973439,2351.52345 583.952467,2380.2097 C607.273935,2395.08342 622.142983,2443.6032 622.530472,2445.84361 C480.992472,2453.96861 312.185,2452.381 172,2430 C169.334419,2429.22517 170.4717,2367.60179 176.806446,2326.24689 L177,2325 C181.569485,2295.95264 186.763907,2279.98179 187.08038,2279.2996 L187.43832,2278.69829 C193.257378,2269.20385 209.175852,2258.99833 219.484472,2265.94261 L219.581295,2266.02329 L221.510499,2267.76799 C230.719367,2276.03687 269.199692,2309.17233 295.915472,2301.12761 C304.663472,2298.28661 311.926472,2292.60661 319.536472,2287.65361 C340.014472,2274.42661 353.512472,2263.38561 376.616472,2255.42961 Z M380.705932,2253.6 C382.585969,2254.81214 384.374688,2256.17784 386.102673,2257.64207 C383.853043,2256.29067 381.468918,2255.17171 378.901472,2254.37361 C379.461872,2254.16901 380.004398,2253.93946 380.526625,2253.68806 L380.705932,2253.6 Z" id="Shoes" fill="#FFF"/><path d="M627.544789,32.9283818 L629.165016,33.1296417 C635.473859,33.9529644 640.755687,35.3210655 645.24457,37.5839764 L645.759012,37.8490725 L647.813016,38.9308741 L648.312103,41.1980608 C649.878139,48.312028 655.706143,64.3579538 658.851022,70.6542712 L659.016891,70.9821408 L659.122785,71.1876714 L659.493848,71.8720886 L660.27238,73.6609517 C675.550949,108.530334 696.187112,141.676276 721.335633,172.095919 L722.573562,173.586782 L723.357474,174.63976 C746.246268,205.192751 775.354668,227.137417 799.570019,227.723736 L800.302308,227.734953 L801.591342,227.724853 C815.436248,227.407003 827.778429,220.127165 838.430511,204.678211 C845.720353,193.94245 849.87431,180.596204 851.430659,164.592626 C852.670692,151.841652 852.274352,138.23077 850.58319,121.165963 L850.471064,120.048117 L850.195577,117.399168 L850.002527,115.609405 C849.919541,114.84894 849.778917,114.679114 849.502179,114.65529 L849.440766,114.652258 L849.331727,114.651653 L849.266901,114.654734 L849.206635,114.660768 L849.096484,114.680241 L843.971504,116.745513 L842.046219,110.899757 L841.637325,109.688807 L841.183351,108.368517 L839.336581,103.080204 L838.751393,101.371546 L838.28602,99.9780098 C837.622985,97.9643047 837.073464,96.1614204 836.586225,94.3703279 L836.40633,93.6988322 L833.747523,83.2568278 L842.631331,86.4821595 C843.09895,86.6519317 843.562224,86.828545 844.021397,87.012068 L844.707109,87.2925433 L845.353799,87.5631518 L845.901137,88.0011693 C847.782454,89.5067305 849.675793,90.728089 853.023482,92.6430323 L853.449622,92.8860834 L857.8449,95.3688977 L858.822799,96.1989581 L859.487244,96.7778357 C863.548815,100.358529 866.991267,104.185292 872.252262,110.673602 L872.682862,111.205562 L876.498495,115.95633 L878.306325,118.179568 L879.352422,119.900842 L880.136033,121.217465 L880.576165,121.964905 L883.060806,126.21921 L884.227867,128.196732 C887.197943,133.191131 889.094526,136.044403 891.434795,138.936354 L891.879165,139.47958 L892.20068,139.864564 C896.078959,144.463112 900.901558,148.561204 908.115646,153.703326 L909.376043,154.595348 L911.254763,155.907543 L911.951333,156.495466 C913.642704,157.90261 915.261773,159.087653 916.843879,160.064273 L917.299631,160.339382 L917.85293,160.539752 L920.25238,162.252984 L922.091807,163.579755 C935.119239,173.022109 944.849454,181.078828 953.742727,190.144973 C959.945422,196.469346 965.71913,203.035642 971.019269,209.816253 L972.072969,211.175224 C972.953305,212.319529 973.76322,213.402408 974.703266,214.693245 L975.694117,216.063378 L980.425695,222.700551 L981.704725,224.467792 C983.519381,226.954533 984.904211,228.750733 986.367843,230.504524 L986.612598,230.79654 L987.28,231.581 L987.945517,232.135539 L988.407337,233.012747 C993.385279,242.468138 997.237335,252.26631 999.947367,262.613111 L1000.196,263.581 L1000.48627,264.413103 C1004.09702,274.905388 1006.42646,286.009511 1007.84075,298.500287 L1007.97914,299.754016 L1008.21316,302.029034 C1008.97548,309.743189 1009.3525,316.531277 1009.66724,327.594744 L1009.76808,331.360614 L1010.11596,346.38321 L1010.21058,349.848292 C1010.62061,363.89875 1011.24099,373.237565 1012.54657,382.763694 L1012.62573,383.335526 L1012.78323,384.441203 L1012.80243,384.589079 C1017.81237,428.255496 1028.0146,470.916117 1043.26279,511.832336 L1043.98125,513.749003 L1044.51638,515.1629 L1048.41937,525.35356 L1049.3135,527.717276 C1053.46728,538.766286 1055.95152,546.403449 1057.81653,554.487072 C1060.39673,565.670542 1061.16307,575.879605 1059.81786,585.668807 L1059.70563,586.448382 L1059.64254,586.963389 C1058.88488,593.183886 1058.74517,599.032363 1059.13949,603.361564 L1059.194,603.92 L1060.62832,603.930132 C1065.33044,603.964272 1069.16893,605.476046 1072.22551,608.403745 L1072.51887,608.691489 L1072.80736,608.988061 C1075.12185,611.423209 1076.77149,614.384488 1078.68518,619.00055 L1079.13706,620.127398 C1079.68912,621.5332 1081.08749,625.084048 1082.11291,627.60181 L1082.84393,629.366803 L1083.32077,630.457011 C1084.00911,632.000883 1089.20582,638.114041 1098,642 C1101.42724,643.514425 1107.80129,645.053494 1117.12214,646.617208 L1118.02501,646.982394 C1130.63171,652.03178 1141.9336,654.451372 1164.15608,657.459027 L1168.24304,658.003038 L1177.44837,659.196941 C1186.69886,660.414845 1192.54086,661.293424 1198.5348,662.429866 L1200.25457,662.762096 L1212.35971,665.181561 L1203.04908,671.890566 C1187.04911,683.419737 1128.94137,745.672538 1126,767 C1122.50622,792.332874 1176.36638,775.599364 1183.85646,767.367618 L1184.69712,766.43757 L1185.51353,765.522343 L1188.01564,762.679236 L1190.48019,762.848791 L1192.91599,763.023858 C1197.81702,763.390957 1202.90409,763.860208 1208.34583,764.43831 L1217.80976,765.462526 L1211.10689,775.750105 L1209.3534,778.422457 L1208.15761,780.232593 L1206.93615,782.069541 L1205.69287,783.92532 C1188.4184,809.604825 1173.81183,826.387062 1155.71521,838.832151 L1155.10563,839.247382 L1154.766,839.494328 C1150.20504,842.719438 1145.18783,844.365355 1139.69571,844.632346 L1139.14492,844.654456 L1138.59095,844.667417 L1138.15095,844.67084 C1135.11901,844.673954 1131.98664,844.275219 1128.6358,843.516162 L1127.86714,843.337466 C1124.80862,842.607879 1121.90181,841.689102 1117.63567,840.165107 L1116.53994,839.771259 L1112.97756,838.472722 L1110.22404,837.48651 L1109.38075,837.193786 C1097.2841,832.866064 1085.47712,827.969146 1073.99646,822.512765 C1000.18082,787.80444 943.929535,735.261622 920.629707,671.224275 L919.933753,669.280237 L919.174,667.083 L907.106,669.716 L906.784666,672.487551 C892.197753,800.081176 895.092706,901.563023 921.183356,996.118636 L921.981088,998.981857 L922.728,1001.612 L923.979639,1004.63403 C927.745547,1013.67112 931.851332,1023.0011 937.026587,1034.37391 L939.169,1039.065 L940.660443,1039.51874 L941.606002,1041.52778 C942.803309,1044.07171 944.182822,1046.5695 945.741222,1049.02003 L946.11991,1049.60878 C947.699396,1052.03573 949.329361,1054.17652 952.143814,1057.57053 L952.842606,1058.40995 L957.004109,1063.36048 L957.908506,1064.45447 C958.096479,1064.68373 958.277631,1064.90603 958.455657,1065.12588 L958.984054,1065.78267 L959.864548,1066.8952 C960.27183,1067.41535 960.653656,1067.91203 961.01894,1068.39785 L961.554207,1069.11721 L962.109177,1070.09413 C964.381794,1074.14171 966.04921,1077.76331 967.233513,1081.45238 L967.449938,1082.145 L967.557902,1082.50022 L967.612219,1082.86748 C970.801538,1104.43233 961.501632,1123.70039 942.578968,1140.47308 C928.464142,1152.98419 909.725077,1163.52267 888.589293,1172.13992 L887.36519,1172.63431 C860.554165,1182.71166 833.707239,1187.84651 806.496322,1188.39281 L805.135471,1188.4163 L801.689332,1188.44121 C760.756663,1188.44121 719.504043,1178.24091 674.680991,1158.58334 L672.690663,1157.70614 C640.902955,1143.6267 611.735476,1127.35485 564.788959,1098.58848 L561.831467,1096.77421 L555.516483,1092.88756 L538.207414,1082.19641 L537.833,1081.339 L537.016279,1080.68197 L536.470757,1080.25746 C533.093913,1077.66465 529.436053,1075.50583 523.035379,1072.15716 L521.973001,1071.60345 L518.853534,1069.99309 L515.272636,1068.12745 L512.729345,1066.58497 L508.904036,1064.27453 C495.04248,1055.92438 482.953935,1048.89004 471.406622,1042.50592 L470.358323,1041.92732 L467.463198,1040.33953 L467.298319,1040.24543 C460.352998,1036.10476 453.508876,1032.0998 446.739124,1028.2176 L444.015396,1026.65996 L441.706616,1025.06275 L439.651368,1023.65057 L437.582619,1022.24291 L436.01863,1021.19063 C426.484736,1014.81183 418.957938,1010.45416 411.167032,1007.04096 C403.275674,1003.5846 396.546252,1001.30739 390.247173,1000.27536 L389.597049,1000.17304 L388.583226,1000.02007 L387.711427,999.480437 C384.029754,997.201523 380.744969,994.758392 377.802757,992.054512 C370.868201,985.681743 366.825498,978.03406 364.886555,968.665593 L364.763077,968.052162 L364.373513,966.061281 L365.481239,964.361777 C365.665912,964.078447 365.840976,962.969691 365.917149,960.729218 L365.934081,960.145345 L365.977855,958.387356 L366.004529,957.625119 C366.092396,955.435726 366.257774,954.091563 366.687193,952.765002 L366.797,952.441 L366.894205,951.659664 C368.22489,940.76012 368.973489,931.18628 369.863142,914.608483 L370.046259,911.137554 L370.990796,892.355932 C371.49363,882.71838 371.935468,875.660335 372.491544,868.888588 L372.681374,866.638797 L372.966812,863.459563 L373.23351,860.290215 C376.1012,827.013153 380.683363,798.979935 391.80467,741.391691 L397.618303,711.353094 C400.682947,695.374619 402.72845,684.271541 404.614125,673.243684 L405.3788,668.724312 L406.501119,661.920632 L407.062332,658.426513 C412.86542,621.917538 415.843775,591.01052 415.921723,561.445972 C416.012438,527.039418 412.067099,495.170871 403.430988,464.652098 L403.002477,463.152257 L402.838,462.588 L393.842019,471.206925 C355.914862,549.98223 327.836431,607.072224 309.606724,642.476906 L308.310631,644.986382 L308.05616,645.613064 C306.839925,648.774273 306.573588,657.031997 307.478593,665.36686 L307.588228,666.328631 L307.710702,667.30748 L307.857633,668.377921 C308.495411,672.815289 309.412641,676.680139 310.471053,679.351833 C310.809717,680.206708 311.145708,680.893154 311.447357,681.386451 L311.558805,681.562335 L311.632,681.669 L312.187323,681.668501 C313.089089,681.664759 313.988891,681.656606 314.885506,681.644059 L316.227882,681.621945 L318.23047,681.576445 L330.124543,681.227076 L323.923991,689.522502 C306.047411,713.438734 292.332644,741.494972 284.053937,770.833951 L283.69223,772.129141 L282.23452,777.457586 L277.554373,777.015974 L276.710528,776.947593 L274.110806,776.749137 L271.03458,776.464172 L270.05,774.918 L268.206919,776.069096 L264.852472,775.427407 L262.150583,774.89503 C241.288335,770.717242 222.014888,765.281973 189.64496,754.992199 L186.471009,753.981139 L174.452673,750.130217 L168.016509,748.072524 L167.081847,747.753452 L166.250762,747.459829 L165.458542,747.170117 C156.349031,743.775488 151.150975,739.271682 148.60722,730.899381 L148.416586,730.250032 L148.230992,729.281067 L139.549092,683.651734 L138.134266,676.367198 C136.604552,668.541938 135.203712,661.553494 133.810006,654.814403 L132.764161,649.79766 L130.936631,641.171849 L139.904551,640.406067 L140.959463,640.30852 C143.694568,640.045068 145.817096,639.752168 147.599936,639.362029 L147.995,639.272 L148.07765,637.184942 L148.157673,635.337862 C148.255936,633.156621 148.371798,630.879851 148.509832,628.471535 L148.633683,626.37421 L148.822886,623.375926 C149.875904,607.271533 151.614489,589.528877 154.240092,570.351419 C161.812526,515.042217 175.023586,459.815285 195.347289,408.169076 C210.725687,369.089783 234.571281,328.623131 265.406683,287.088291 C289.871764,254.134181 317.410714,222.19255 348.148481,189.895137 C387.945036,147.449147 419.538228,118.123732 453.598563,94.2083483 C495.78265,64.5888914 538.382655,46.4443468 583.724863,40.7761505 L584.893,40.633 L586.776298,40.2638567 C589.416651,39.7556745 592.012821,39.3014899 595.555129,38.7238877 L596.190265,38.6206406 L608.022646,36.7400651 L611.244989,36.2110038 C615.494186,35.5004888 618.718519,34.9018442 621.874197,34.2280023 L623.225214,33.9340636 L624.686035,33.6043606 L627.544789,32.9283818 Z" id="Top" fill="#9DDADB"/><path d="M671.7216,0.9982 C672.8266,1.4462 673.5806,3.1272 674.0276,5.6532 C675.2576,6.0372 676.3116,6.9462 676.6286,8.3152 C677.560748,12.3413481 676.471387,16.5390464 675.631298,20.5520063 L675.5356,21.0142 C674.7406,24.8992 673.7686,28.7602 672.5806,32.5462 L672.406939,33.505041 C669.515475,49.1527108 663.941,64.03062 657.3946,61.5032 L658.907148,64.2586039 C684.59414,110.898169 757.96774,236.12692 815.2556,218.2772 C848.6156,204.9002 848.1386,161.4162 845.6996,131.1532 C820.9296,146.3532 816.2956,29.9972 821.3736,17.1392 C825.4166,14.1642 827.3666,40.9302 828.8706,44.6202 C832.1526,59.3022 836.1776,73.7952 839.9566,88.3552 C847.9436,89.9372 855.4976,93.1222 862.1766,97.6872 C862.4946,97.8702 862.8226,98.0362 863.1346,98.2262 C867.1426,100.6662 870.2696,103.7782 873.0576,107.2252 C876.2086,110.7522 878.9036,114.6132 881.4486,118.5822 C887.0426,124.9412 892.3756,131.5362 897.8866,137.9632 C900.5016,141.0132 903.1786,143.9702 905.9156,146.8522 L908.026044,148.626719 C908.3786,148.921089 908.731933,149.2142 909.0866,149.5052 C972.3766,189.0382 1016.1916,248.1892 1016.3146,325.2352 C1016.5016,373.3682 1023.4176,421.4422 1036.5816,467.7342 C1047.1286,512.9662 1081.2066,559.1982 1062.7846,606.4352 C1083.5856,603.1022 1085.5176,629.8582 1098.5256,639.9682 L1102.61285,641.074835 C1120.88702,645.995006 1137.64757,650.098717 1156.3446,652.9542 C1173.5766,655.0242 1193.4976,652.7502 1209.6896,660.5272 C1215.2096,664.4462 1213.2346,671.5172 1213.6646,677.3512 C1254.5296,660.6262 1291.2316,637.5212 1329.3086,615.7852 L1330.58385,615.328627 C1344.67769,610.323267 1369.81874,602.8021 1381.3986,613.7922 C1388.1716,621.7642 1381.3336,628.8812 1375.3126,634.2202 C1363.9826,644.2672 1351.9636,653.4832 1340.3556,663.1932 C1371.63489,665.8057 1403.0116,663.72154 1433.94573,658.645056 L1435.6326,658.3652 C1443.2116,657.1312 1452.1486,654.1792 1459.6666,656.9762 C1484.0446,670.5892 1455.8366,686.4792 1442.7476,694.4312 C1452.7206,693.5992 1462.6766,692.3592 1472.6696,690.6472 C1476.6446,689.9672 1479.5166,692.2312 1479.95644,696.1952 C1480.2076,715.2142 1455.1676,716.2392 1442.2906,723.5132 L1443.32282,723.268983 C1451.74176,721.318202 1463.84652,719.60464 1466.4846,730.1032 C1469.2406,742.9912 1451.8756,748.1982 1442.9646,751.6322 C1373.5476,774.9002 1298.1286,781.9642 1225.4926,773.1632 C1220.1606,798.1982 1174.9056,850.3222 1149.9886,857.8342 C1122.3806,864.7202 1089.1746,842.8952 1064.0276,832.3222 C999.5936,799.5302 939.8916,745.4362 921.5156,673.6642 C906.0726,784.9482 912.3146,897.1402 935.4976,1006.6322 C939.2506,1015.1682 943.2106,1023.5722 947.6656,1031.7612 C949.0116,1031.9772 950.1506,1032.8772 950.4136,1034.6992 C950.5506,1035.6962 950.7516,1036.6662 950.9786,1037.6232 C955.4146,1045.1632 960.2766,1052.4082 964.7906,1059.9052 C965.7236,1061.4532 966.6446,1063.0612 967.4866,1064.7082 C997.5366,1100.1682 960.9106,1145.8612 928.1526,1164.9772 C1109.9276,1461.3522 992.5236,1834.8432 1115.6806,2148.8522 L1115.95448,2149.74646 C1120.62921,2164.68081 1134.86638,2195.4218 1114.2756,2202.4582 C1107.7386,2217.2282 1074.7966,2218.9712 1060.1586,2223.5962 C1068.0896,2246.5802 1076.9086,2269.3112 1088.7386,2290.6182 L1088.9526,2290.7122 L1088.9526,2290.7122 C1093.6646,2287.2452 1103.7686,2283.6632 1107.9446,2287.4412 C1108.9606,2287.5692 1109.9726,2287.8552 1110.9606,2288.3462 C1117.4236,2291.5612 1122.6226,2297.7042 1128.8046,2301.5712 C1132.1476,2303.6632 1135.6226,2305.5632 1139.2016,2307.2222 C1142.5326,2308.7662 1146.0726,2309.7842 1148.7906,2312.3302 C1149.6496,2313.1332 1149.8666,2314.1542 1149.6546,2315.0942 C1151.8006,2316.2092 1153.9446,2317.3272 1156.0816,2318.4502 L1157.24242,2317.72274 C1176.13239,2305.94776 1191.3228,2299.56886 1163.8436,2322.1902 C1173.6896,2326.7452 1183.7876,2330.7292 1193.9496,2334.4612 C1201.6686,2330.7472 1209.9066,2328.0372 1218.4006,2327.6642 C1219.9276,2329.5552 1208.2526,2336.8562 1206.3266,2338.8682 C1258.0136,2356.7772 1314.8646,2370.8002 1353.6856,2411.9502 L1354.55678,2412.93341 C1361.16698,2420.33879 1370.8364,2430.2319 1366.5376,2440.4602 C1377.7666,2445.1982 1383.2896,2460.7372 1380.0666,2473.0452 C1363.8666,2526.9652 1115.5236,2505.6862 1059.7466,2507.0952 C1015.6386,2501.4642 896.0776,2510.6962 871.5486,2477.1022 C863.2896,2467.7932 865.2076,2449.6922 876.9536,2444.7942 C868.8016,2438.5252 877.7266,2415.0302 877.7466,2404.4792 L877.933829,2403.25957 C879.182715,2395.38155 884.59516,2364.551 890.2126,2343.0062 C890.3276,2341.3092 890.5526,2339.5712 890.8246,2337.8182 L891.000856,2336.7059 C892.117981,2329.83888 893.832241,2322.85458 898.2656,2317.3302 C901.4496,2313.3662 905.8616,2310.9182 910.6486,2310.0332 C911.9316,2301.8302 912.9846,2293.6072 913.8886,2285.3722 C914.5256,2275.6882 914.7676,2265.9872 914.6586,2256.2842 C914.6016,2251.3832 914.4726,2246.4862 914.2336,2241.5902 C914.0576,2237.9892 914.2636,2233.7092 913.3496,2230.0282 C912.7406,2230.6512 911.8736,2230.9862 910.9026,2230.6532 C908.8396,2229.9462 906.9406,2228.6422 905.0466,2227.5742 C904.9756,2227.5342 904.9186,2227.4872 904.8576,2227.4432 C894.7436,2234.0142 887.4246,2205.8952 883.4906,2198.2622 C792.8616,1938.1242 864.4186,1638.7432 717.5036,1394.7902 C697.2216,1438.3462 679.7926,1478.3032 660.2706,1522.1632 C599.3026,1659.1352 524.0376,1900.4072 473.5626,2045.4412 C459.8296,2075.0882 443.6876,2103.7432 424.4996,2130.2162 C418.3656,2137.1762 414.2496,2147.4172 405.3696,2151.1572 L404.5926,2151.2762 L404.5926,2151.2762 C402.2226,2155.7072 398.9326,2159.4402 394.0406,2159.3152 C392.8406,2159.2842 391.6166,2159.1492 390.3806,2158.9362 C386.0446,2189.1162 380.5926,2219.4852 373.3446,2249.1832 L374.322468,2248.7737 C379.06632,2246.81165 384.055406,2245.14033 388.9246,2245.5772 C400.7406,2248.5692 396.3656,2258.9082 387.0256,2262.3182 C398.6516,2265.9322 406.5186,2276.1252 415.1516,2284.6112 C422.4476,2280.6762 430.6256,2278.6352 439.3646,2279.4952 C440.7026,2279.6262 441.7226,2280.2112 442.4316,2281.0142 C442.9326,2281.0182 443.4196,2281.0462 443.8816,2281.1232 L442.9306,2281.6972 L442.9306,2281.6972 C444.4826,2284.3092 443.3746,2288.2862 439.3646,2288.3072 C436.2166,2288.3252 433.1856,2288.6102 430.2546,2289.1532 C428.2196,2290.3432 426.1946,2291.5462 424.1976,2292.8032 C430.9346,2298.7562 438.1076,2304.2472 445.4936,2309.2682 C449.3946,2307.2732 453.5196,2305.6002 457.8106,2304.2602 C463.3496,2302.5282 465.7676,2311.3402 460.2036,2312.9382 C459.0226,2313.2772 457.8526,2313.6542 456.6906,2314.0572 L455.5494,2314.74912 C455.28212,2314.90936 455.0046,2315.0744 454.7146,2315.2452 C507.7116,2352.9572 597.2926,2348.1792 621.5256,2418.7972 C622.3276,2421.4612 621.9146,2423.7612 620.7876,2425.5702 C626.0396,2430.3912 628.4626,2439.0582 627.2796,2445.7072 L627.38055,2446.26618 C628.28154,2451.64811 626.985433,2456.3715 621.2096,2457.5982 C582.6686,2461.1922 544.2216,2463.4752 505.5126,2464.1802 L502.388924,2464.20576 C446.930042,2464.57888 177.17828,2462.56184 165.0106,2426.9212 C161.7656,2420.3232 160.7656,2410.0852 165.5136,2404.2022 C166.0646,2401.0362 167.1496,2398.1532 169.0786,2395.8952 C161.2656,2387.9982 165.1086,2368.0902 164.1526,2358.0642 C165.8676,2324.5902 172.6536,2288.6972 193.0976,2261.3052 C193.4316,2260.8722 193.8356,2260.6052 194.2526,2260.4752 C197.8226,2256.8852 202.5136,2254.6162 207.8776,2254.3112 C208.0446,2253.8952 208.2146,2253.4772 208.3776,2253.0612 C212.5476,2243.2192 216.5086,2233.1982 220.4436,2223.1292 C223.3636,2211.6882 226.4096,2200.2782 229.4606,2188.9262 C232.5096,2177.5882 235.4926,2166.2332 238.4106,2154.8602 C240.7346,2145.7942 242.7336,2135.5772 246.7556,2126.9132 C246.6466,2126.5432 246.5416,2126.1742 246.4216,2125.8042 L242.236325,2124.10912 C214.82256,2112.95759 171.3859,2094.14845 180.9296,2081.7272 C282.6286,1870.2382 382.1776,1569.1542 475.5056,1349.9022 C476.9636,1345.6032 478.5056,1341.3292 480.1986,1337.0952 C484.320267,1326.7877 488.495406,1316.49548 492.729804,1306.23184 L495.2776,1300.0772 L535.9366,1202.1692 L535.9366,1202.1692 C540.1926,1191.9212 544.9906,1181.7272 548.3446,1171.1382 C551.5766,1160.9392 552.4446,1150.7912 546.3046,1141.5092 C540.8106,1133.2032 533.0686,1126.3292 526.8746,1118.5282 C522.1906,1112.6272 517.6246,1106.3252 513.5326,1099.7042 C509.8166,1094.7992 506.7106,1089.1872 503.9396,1084.6642 C499.4986,1077.4172 493.8516,1069.3922 490.6286,1061.0182 C486.4716,1058.3952 482.3066,1055.7852 478.1266,1053.2032 C470.9076,1049.1532 463.8046,1044.9132 456.8906,1040.3262 C448.1586,1035.1292 439.3706,1030.0252 430.5136,1025.0342 C427.3166,1023.4462 424.1176,1021.8642 420.9146,1020.2872 C411.3186,1021.1192 384.8086,1009.2822 375.7776,1001.2732 C374.7456,1001.0652 373.7186,1000.8302 372.6976,1000.5742 C372.2896,1005.6892 370.6196,1010.3212 366.7286,1013.7562 C340.8516,1026.6072 307.8696,968.4052 298.7796,948.9852 C280.7156,966.6462 323.8176,1054.0072 337.7406,1071.8662 L338.483379,1072.97319 C342.207493,1078.558 346.111497,1084.82779 351.393737,1088.95384 L351.9266,1089.3592 C355.5476,1092.0392 356.2196,1096.2282 353.2656,1099.7502 C328.1886,1122.4082 301.8646,1072.6562 288.1266,1056.2652 C231.5806,972.9652 195.4496,871.6022 197.0336,770.2672 C171.3096,761.6532 135.6976,757.4452 137.0046,722.5172 C135.6896,696.1522 130.9256,670.0692 129.996874,643.6842 C129.7316,637.6162 148.5776,640.6262 152.8306,641.2662 C146.5656,580.6422 156.0316,519.0922 172.9146,460.8272 C217.2386,311.7412 399.7616,43.0352 579.4126,33.3342 C579.2556,33.0412 579.3296,32.6462 579.7326,32.5412 C587.8636,30.4282 596.8496,30.7662 605.2056,31.0322 C613.9026,31.3082 622.7426,31.3682 631.3936,32.3512 C640.3596,33.3692 649.8536,36.6672 655.8766,43.1932 L657.962822,39.4259956 C660.384649,35.0281136 662.718156,30.5855333 664.4806,25.7322 C665.3736,23.2802 666.0726,20.7382 666.7106,18.1692 C667.4316,14.5052 667.6126,10.6912 669.3456,7.3632 C669.3916,7.2762 669.4486,7.2042 669.4986,7.1232 C670.1216,5.0262 670.8346,2.9722 671.7216,0.9982 Z M892.2126,2444.6662 C889.6446,2447.2782 885.1936,2448.4162 881.2516,2447.1682 C868.1506,2484.4152 939.2276,2482.0792 962.0396,2484.1742 C986.3646,2486.7682 1429.4606,2509.8302 1354.5256,2455.2182 C1266.6116,2488.7482 972.5686,2492.4462 892.2126,2444.6662 Z M1107.9996,2296.9722 C1102.0846,2303.0762 1093.1656,2305.7912 1086.8206,2311.6162 C1068.8836,2326.7992 1054.4546,2348.1592 1029.6646,2352.1822 C997.0966,2358.2642 967.7366,2342.1812 938.6046,2329.4442 C934.9776,2329.2702 931.1936,2327.7372 927.4756,2326.6002 C927.3436,2326.8702 927.2126,2327.1412 927.0626,2327.3902 C926.8816,2327.3192 926.6886,2327.2592 926.4726,2327.2242 C926.1486,2327.1702 925.8416,2327.1362 925.5246,2327.0892 C924.7766,2326.4912 923.9886,2325.9892 923.1726,2325.5642 C922.6796,2325.4892 922.1896,2325.4292 921.7026,2325.3992 C915.6986,2325.0322 909.1816,2326.4282 905.3286,2331.4092 C904.9986,2331.8332 904.6996,2332.2802 904.4106,2332.7352 C902.5436,2339.3552 902.3046,2347.3662 903.2056,2352.9682 C903.4976,2354.7972 902.7356,2356.5972 901.4456,2357.6352 C900.2946,2385.3462 897.1766,2413.1732 894.9996,2440.5172 C905.8956,2444.4352 917.2016,2447.4182 928.5176,2449.3072 C1006.6046,2458.9132 1085.5256,2463.3752 1164.2126,2460.9612 C1211.0546,2459.2672 1257.8306,2455.0792 1304.1866,2448.1162 C1319.1716,2446.7042 1334.5096,2440.9032 1349.4846,2443.2462 C1350.1226,2442.0412 1351.1176,2441.0102 1352.4996,2440.3072 C1314.1156,2387.7112 1248.5076,2373.4942 1191.3106,2350.4342 C1181.8636,2356.4772 1176.0476,2369.0622 1165.5256,2372.8112 C1161.4406,2373.4242 1155.7606,2371.0142 1156.3596,2365.8292 C1158.0576,2355.2132 1169.5176,2350.3712 1177.2346,2344.2092 C1168.9536,2340.3392 1160.8306,2336.1332 1152.9066,2331.4572 C1145.1226,2338.4772 1135.9106,2343.8192 1128.6226,2351.3062 C1132.7656,2361.4272 1115.4946,2360.5512 1115.3016,2349.7802 C1116.4966,2337.8642 1135.3636,2332.8192 1143.7906,2325.8712 C1130.6286,2317.8562 1118.8726,2307.7472 1107.9996,2296.9722 Z M180.6476,2401.1042 C180.1886,2402.0102 179.4396,2402.8342 178.3306,2403.4762 C176.410825,2404.5877 177.333419,2410.46278 177.429872,2412.44365 L177.4356,2412.5882 C177.5406,2416.1442 177.7626,2419.6902 178.0706,2423.2312 C181.3106,2426.1552 185.4536,2428.3772 190.0566,2429.7152 C330.2416,2452.0962 473.1166,2453.9132 614.6546,2445.7882 C614.0036,2442.0242 611.2526,2438.9242 608.8176,2435.7842 C519.3396,2443.3952 427.7096,2435.4312 338.0816,2428.0172 C285.6836,2421.1252 230.7836,2418.2722 180.6476,2401.1042 Z M384.7406,2263.3742 C361.6366,2271.3302 340.1386,2282.3712 319.6606,2295.5982 C312.0506,2300.5512 304.7876,2306.2312 296.0396,2309.0722 C265.7496,2318.1932 220.3366,2274.3782 219.6086,2273.8872 C209.0896,2266.8012 197.9356,2273.4072 192.2126,2283.2282 C191.6836,2284.1362 182.9106,2334.3652 183.1756,2358.9692 C181.6016,2367.3332 185.8016,2381.0062 183.5666,2390.1252 C185.3236,2392.2422 187.8286,2393.2372 189.5156,2395.4512 C190.1266,2396.2522 189.9536,2397.1592 189.4256,2397.8422 C271.2216,2404.5772 352.5416,2417.3572 434.7266,2420.0552 C490.9746,2423.0322 547.3296,2422.3472 603.5866,2421.6652 C590.7876,2384.0652 547.1916,2374.1342 513.8916,2361.7562 C488.7316,2352.7132 465.5676,2339.2382 445.1856,2321.9182 C436.3466,2328.1262 429.3766,2336.8262 423.1146,2345.5672 C420.2696,2349.1192 414.4266,2351.8022 411.3796,2346.8792 C408.2416,2341.7722 414.3676,2335.3162 421.9316,2329.6612 C425.9096,2323.7662 430.9266,2318.7442 436.7036,2314.6062 C430.3166,2308.9102 424.1666,2302.9752 418.4056,2296.6662 C406.4586,2304.7642 397.6816,2316.4152 389.0876,2327.7222 C384.9576,2332.2292 377.2336,2326.2692 380.6216,2321.1892 C383.3366,2317.6862 386.3926,2314.4562 389.6646,2311.4292 C394.5966,2302.1192 401.6976,2293.5242 410.3126,2287.5702 L409.655545,2286.73551 C402.459402,2277.49495 396.238188,2266.40923 384.7406,2263.3742 Z M181.1766,2395.2042 C180.9786,2395.4482 180.7706,2395.6842 180.5486,2395.9112 C180.7466,2396.3152 180.8986,2396.7392 181.0106,2397.1702 L183.1096,2397.3382 L183.1096,2397.3382 C182.3806,2396.7332 181.7386,2395.9972 181.1766,2395.2042 Z M1052.4736,2225.1192 C1009.6186,2233.2152 965.3476,2236.3292 922.0916,2229.6422 C927.1016,2257.5932 930.2386,2285.7192 928.5956,2314.1042 C993.2706,2332.7842 1020.1426,2363.9322 1073.9536,2301.6822 C1071.3536,2297.7212 1069.8536,2292.8582 1068.1076,2288.1682 C1060.6716,2267.8142 1054.5256,2246.7612 1052.4736,2225.1192 Z M265.3436,2133.4442 C264.7326,2134.7972 263.6306,2135.9092 262.0426,2136.4002 C261.4766,2138.9032 260.8916,2141.4042 260.2676,2143.8992 C259.2176,2156.7772 254.3596,2169.5432 249.3356,2181.4242 L248.3106,2183.8852 L248.3106,2183.8852 C244.9966,2193.7662 241.5226,2203.6282 238.0956,2213.5002 C235.4996,2223.7562 233.2126,2234.0962 230.8226,2244.4012 C230.3616,2251.3922 229.3696,2258.3232 227.8446,2265.1722 C227.7736,2265.4932 227.6786,2265.7872 227.5736,2266.0692 C229.9686,2267.1372 232.2806,2268.3752 234.4606,2269.6262 C300.0766,2318.9472 288.7446,2285.9722 351.7456,2258.3592 C351.38335,2255.70653 352.710961,2253.31194 353.793894,2250.56636 L353.9336,2250.2062 C353.9996,2250.0332 354.0646,2249.8582 354.1306,2249.6842 C354.0266,2248.6372 354.0876,2247.5132 354.3646,2246.3172 C360.7456,2220.2052 369.6306,2194.5472 377.9466,2168.9982 C379.2776,2165.1512 380.8186,2161.3912 382.3936,2157.6372 C342.4476,2157.1232 302.9356,2146.4822 265.3436,2133.4442 Z M248.0626,2146.1292 C247.289457,2149.54149 246.447988,2152.90749 245.680513,2156.15919 L244.5496,2161.0082 L244.5496,2161.0082 C246.1586,2156.1052 247.4276,2151.1332 248.0626,2146.1292 Z M628.0606,39.7052 C614.1576,43.0892 599.9106,44.4712 585.9276,47.2782 C489.5586,58.7752 415.6746,127.1402 352.0316,195.0202 C231.4726,321.6972 161.3296,477.5662 166.5066,653.7332 C209.5596,661.5792 252.1686,673.0642 296.0336,675.5732 C289.6586,665.9132 300.3346,653.8302 304.0096,644.5812 C367.4566,521.9512 416.4456,386.5772 456.2266,257.4722 L455.145486,263.107294 C442.654574,327.903454 428.104882,392.424313 405.8966,454.6662 C412.3296,448.3392 518.0076,364.2592 509.7476,392.0612 C477.4606,417.3062 440.9936,437.3112 407.1626,460.4782 C447.3876,594.8992 389.2346,731.0982 378.1856,865.5742 C375.4096,895.4752 375.6506,925.5842 371.9196,955.3722 C370.5006,958.7402 371.9946,965.5922 369.9056,968.7972 C371.4526,976.7032 374.7066,983.9072 381.4216,990.0782 C384.2486,992.6762 387.3346,994.9262 390.5786,996.9342 C398.6776,998.1562 406.8126,1001.2772 413.4086,1004.1662 C428.0856,1010.5962 441.0026,1020.0762 454.1216,1029.1322 L454.4726,1029.3702 L454.4726,1029.3702 C475.6256,1040.2432 496.7566,1052.5942 517.9656,1065.4752 L518.9126,1065.9712 C526.8016,1070.1132 534.8676,1073.8492 541.7416,1079.5922 C542.0546,1079.8552 542.2636,1080.1552 542.4006,1080.4692 L555.283011,1088.42801 C658.469286,1152.13152 764.86144,1215.13152 885.8416,1169.6592 C919.8326,1155.9632 969.2476,1128.2132 962.9016,1085.3042 C961.6506,1081.1882 959.7476,1077.3232 957.5956,1073.5602 C956.9976,1072.7522 956.3826,1071.9572 955.7636,1071.1752 C951.0756,1065.2492 945.8286,1059.8102 941.7576,1053.4082 C940.1016,1050.8042 938.6166,1048.1222 937.3176,1045.3622 C936.3996,1045.0832 935.5836,1044.4372 935.0696,1043.3132 C929.2466,1030.6092 923.5426,1017.8832 918.2306,1004.9532 C853.8286,780.3562 931.9996,539.0382 954.1146,312.5072 C955.6476,299.5352 957.9046,286.4312 957.8986,273.3652 C957.8986,272.7522 958.7866,272.7722 958.8356,273.3652 C966.6356,331.1832 960.7186,389.5392 953.3026,447.0962 C943.8076,519.1002 931.3326,590.8052 922.7616,662.9392 C945.5466,735.6492 1009.3566,788.1882 1076.3596,819.6932 C1087.7596,825.1112 1099.4156,829.9392 1111.3006,834.1912 L1112.098,834.467759 C1125.15707,839.038439 1139.89572,846.10518 1152.4946,836.8432 C1176.6726,820.4292 1193.7416,795.3822 1209.4106,771.2612 C1203.0716,770.5742 1196.7246,769.9792 1190.3726,769.5422 C1174.7766,787.3872 1155.6676,802.5362 1135.5016,814.9162 C1127.2836,819.6282 1117.9476,817.6352 1114.1486,808.4122 C1110.56294,799.710169 1114.95345,789.544629 1118.13245,781.153911 L1118.5916,779.9292 C1134.6856,736.5142 1162.6306,696.7272 1200.3616,669.5392 C1171.8946,663.8462 1142.3266,664.0192 1115.0186,652.7672 C1116.5076,654.3322 1114.5566,656.0832 1113.6086,657.4102 C1113.9456,659.9832 1112.0766,661.8642 1109.7796,662.5532 C1087.4976,691.6752 1070.6106,726.1632 1067.0846,763.0972 C1068.0226,775.6772 1056.7696,790.2052 1045.9336,776.9972 C1037.4586,740.2292 1070.7966,682.7692 1100.1116,660.0812 C1070.7146,639.8972 1079.2836,610.7692 1060.8276,610.6352 C1056.0586,619.7922 1049.8356,628.5592 1041.9926,635.3612 C1038.4476,638.2442 1034.1426,640.4182 1030.3376,642.9762 C1026.3356,645.6672 1022.1696,639.7472 1025.3386,636.4972 L1026.17457,635.491919 C1038.21181,621.089592 1052.50542,606.932086 1054.9916,587.4482 C1058.5856,563.4522 1047.8046,539.1432 1039.5406,517.2242 C1023.6976,475.2032 1013.1896,431.4812 1008.0706,386.8642 C1002.2716,346.8882 1009.3236,305.4222 995.6426,266.7382 C992.9236,255.9652 989.0126,246.1532 984.2186,237.0472 C984.1046,236.9522 983.9916,236.8552 983.8886,236.7362 C978.1976,230.1512 973.6516,222.8262 968.3456,215.9292 C962.7966,208.7142 956.7806,201.8482 950.4086,195.3512 C939.7596,184.4952 928.0026,175.4372 915.7466,166.7152 C915.5196,166.6332 915.2906,166.5272 915.0606,166.3912 C912.7646,165.0342 910.5596,163.3862 908.4316,161.5752 L908.2246,161.4312 C901.0976,156.4762 893.8246,151.0982 888.2616,144.3712 C882.8016,137.7662 878.9156,130.0642 874.4576,122.7892 C868.3636,115.3532 862.5546,107.3862 855.2056,101.1902 C851.0486,98.8162 846.7226,96.5792 843.0126,93.6102 C842.4056,93.3562 841.7886,93.1152 841.1606,92.8872 C842.7416,99.3352 845.1336,105.2682 847.2886,111.8182 C850.4106,110.5002 854.6836,111.9612 855.2086,116.7722 L855.402321,118.568152 C858.537245,148.030616 860.1241,183.6828 842.8026,209.1922 C804.6606,264.5112 747.6896,217.2812 718.8766,178.3832 C693.0196,147.3602 671.2816,112.8522 655.2286,75.7662 L654.962813,75.2759636 C651.973537,69.6006816 645.495272,52.2943194 643.6646,43.9782 C639.0356,41.5402 633.4036,40.3592 628.0606,39.7052 Z M505.9456,1070.7512 C505.8296,1070.8972 505.6976,1071.0232 505.5536,1071.1332 C510.9636,1078.8192 516.1176,1086.7672 521.4296,1094.4792 C517.0746,1087.3592 512.9806,1080.1842 509.3556,1072.9302 C508.2216,1072.1982 507.0816,1071.4762 505.9456,1070.7512 Z M203.1936,772.1802 C223.8676,884.4452 253.4126,1002.5602 335.7366,1086.4982 C310.1156,1050.4022 290.1916,1008.2632 284.3946,964.1262 C284.1546,952.2812 288.4676,939.7682 301.5716,938.0142 C303.808052,937.7142 305.506938,939.71805 306.305734,941.499853 L306.3826,941.6772 C311.5376,953.9852 318.2406,965.6902 326.1776,976.4152 L326.955785,977.430006 C332.945203,985.176512 358.36725,1016.75475 361.9136,1001.6602 C359.3176,925.3572 280.4746,893.8982 267.5626,788.8092 C245.4706,786.4692 224.5066,778.0762 203.1936,772.1802 Z M372.6866,994.8652 C372.7716,996.0632 372.8126,997.2492 372.7946,998.4172 C373.9656,997.9332 375.1696,997.5452 376.4006,997.2442 C375.1506,996.4712 373.9146,995.6752 372.6866,994.8652 Z M371.5176,986.6432 C371.9506,988.8362 372.3166,991.0482 372.5416,993.2382 C374.7916,993.9542 377.0176,994.7372 379.2316,995.5512 C377.8896,994.3462 376.6126,993.0692 375.4156,991.7102 C374.0206,990.1252 372.7126,988.4242 371.5176,986.6432 Z M401.9866,465.8002 C385.8376,510.8772 367.7496,555.2602 347.5546,598.6762 C333.9946,624.0822 324.9476,653.6862 306.1836,675.7332 C306.0006,675.9102 305.8166,676.0732 305.6286,676.2262 L305.939357,676.237948 C311.530772,676.485656 341.91134,679.47644 326.3166,686.3482 C320.2616,710.2112 312.3286,733.5292 305.6956,757.2352 L305.547712,757.922274 C303.120855,769.38773 300.05224,792.48388 283.7666,784.7752 C281.9996,786.1262 279.8786,787.0772 277.5976,787.7132 C284.9176,851.9622 325.5486,893.7882 357.6676,946.2452 C350.487727,918.560643 352.586,889.649929 355.085959,861.383033 L355.7056,854.4272 C368.9766,724.8212 417.6786,597.3732 401.9866,465.8002 Z M536.8658,877.7754 C510.6888,845.1394 381.9348,522.0314 472.9238,717.7824 C505.2628,785.9284 531.8818,858.8834 585.2328,914.0994 C588.9218,918.0634 584.0618,925.0304 579.2678,921.8294 C562.0468,910.3304 548.1088,895.0774 536.8658,877.7754 Z M443.6805,487.2509 C443.5725,486.7269 444.2435,486.4389 444.5385,486.8879 C479.5215,555.9589 504.4995,630.1849 544.0265,697.1639 C567.8865,738.6379 596.5175,777.2989 629.3035,812.1609 C631.7665,814.7799 628.0605,818.3969 625.3925,816.0719 C531.8005,729.7199 486.2975,604.1939 443.6805,487.2509 Z M1133.4926,771.6142 L1133.4356,771.6232 L1133.4356,771.6232 L1132.57523,773.849325 C1132.28285,774.59995 1131.9856,775.3582 1131.6856,776.1212 C1131.8286,776.0582 1131.9726,776.0002 1132.1166,775.9402 C1132.4236,775.6312 1132.7306,775.3182 1133.0376,774.9892 C1132.9686,773.8532 1133.1096,772.7142 1133.4926,771.6142 Z M153.2016,643.9782 C148.4496,645.8432 142.6116,646.1952 137.3586,646.6502 C143.2396,674.3592 148.3166,702.2792 153.6396,730.0622 C156.1006,738.5902 161.8866,741.5842 169.8946,744.2882 L176.330764,746.345893 C206.377307,755.974338 236.5936,765.864 267.5756,771.7692 C269.7536,770.3512 272.8476,770.4202 274.2936,772.6922 C275.8006,772.8332 277.3476,772.9162 278.8766,773.0612 C287.1546,742.4902 301.3196,712.8662 320.2746,687.5072 C267.2936,689.2152 213.9296,675.2422 163.5276,659.6192 C161.4866,660.6102 158.7986,659.9902 157.9376,657.6452 L157.161367,657.423076 C148.699881,654.911914 137.48056,648.74607 155.2626,651.8782 C154.1886,649.3742 153.5926,646.6822 153.2016,643.9782 Z M1371.4546,621.3562 C1336.3356,615.5512 1309.4976,644.0062 1279.5256,657.0682 C1261.5806,664.7662 1213.7596,688.6422 1196.3746,680.7002 C1172.5396,703.6442 1152.4156,730.4512 1138.3436,760.5292 C1142.1796,760.3002 1146.0166,760.1302 1149.8536,760.0082 C1156.8026,757.7772 1164.2206,757.6632 1171.4356,759.8102 C1243.7066,760.6062 1316.0256,774.6502 1388.0056,756.8512 L1389.66193,756.542064 C1404.44811,753.736571 1454.9304,743.06548 1457.8056,732.6082 C1457.0506,728.0562 1443.4766,732.8652 1440.8676,733.3802 C1420.1216,737.4672 1399.0426,739.4162 1378.0206,741.4632 C1372.1736,742.0292 1372.2476,732.9332 1378.0206,732.3552 C1403.3246,729.8372 1427.2996,720.3382 1450.5186,710.4552 C1452.9866,709.3602 1459.5256,707.0932 1464.0496,704.1522 C1442.5966,707.8002 1420.4906,708.4332 1398.7836,707.6592 C1391.3106,706.6922 1390.7836,695.3402 1398.7836,695.5642 C1413.4376,697.1842 1427.4376,689.9502 1439.4006,682.3142 L1442.00412,680.624028 C1461.94483,667.624886 1460.5516,667.06152 1435.3516,671.8932 C1398.3206,678.6362 1360.8436,678.3862 1323.4476,675.8132 C1318.1106,675.7232 1314.4256,668.5412 1318.8416,664.6942 C1336.0606,649.8252 1354.5206,636.5652 1371.4546,621.3562 Z M1201.7026,675.5102 L1201.2956,675.896647 C1200.43631,676.721251 1199.73142,677.450709 1199.33702,677.839071 L1199.1776,677.9932 C1198.6486,678.4902 1198.1356,679.0042 1197.6116,679.5062 C1199.9076,680.2772 1202.4406,680.3212 1205.0536,679.9162 C1203.4766,678.9302 1202.3046,677.3192 1201.7026,675.5102 Z M541.834874,556.4902 L542.032015,556.702207 C564.622251,581.147682 587.519656,620.792833 606.2353,652.0563 C608.70245,677.6816 553.36628,571.362302 541.920039,556.597208 L541.834874,556.4902 Z M1110.3846,651.0712 C1110.60327,651.342533 1110.81438,651.621867 1111.01882,651.907126 L1111.3206,652.3392 L1111.8066,652.0392 C1111.9856,651.9322 1112.1736,651.8662 1112.3656,651.8172 C1111.7036,651.5742 1111.0446,651.3192 1110.3846,651.0712 Z M1007.027,567.6183 C1027.353,570.8093 985.789,596.0633 980.303,599.6813 C976.79,601.0163 943.389,628.5933 945.415,619.6423 L946.360323,618.433899 C961.916208,598.636319 983.11696,575.9973 1007.027,567.6183 Z M211.8989,514.695 C219.4169,502.587 260.3319,518.527 273.2649,520.436 C280.5349,522.355 287.7259,524.626 295.0739,526.238 C300.8159,528.321 327.5899,526.302 317.7639,537.653 C307.5109,543.164 294.1249,538.904 283.6249,535.978 C262.7339,530.271 241.7709,523.613 220.3779,520.446 C219.7359,520.125 219.6969,520.342 220.2589,521.099 C224.8609,531.325 234.5389,540.919 245.4399,544.215 C246.1929,544.433 245.8759,545.584 245.1139,545.39 C233.2159,543.028 205.5059,529.826 211.8989,514.695 Z" id="Ink" fill="#000"/></g></g><g id="Head" transform="translate(405.000000, 189.000000) scale(0.9978902953586498 1)"><g id="Head/Twists" stroke="none" stroke-width="1" fill="none" fill-rule="evenodd"><path d="M67.9729,102.4005 C73.1589,96.8355 79.7919,92.6895 87.0429,91.3645 C80.4149,94.6755 73.9359,98.1265 67.9729,102.4005 Z M57.8149,150.3845 C56.8979,146.1435 56.2819,141.8615 56.0879,137.5805 C57.2469,139.3425 59.0979,140.5195 61.1769,141.1275 C59.8339,144.1345 58.6919,147.2325 57.8149,150.3845 Z M404.835051,216.877813 C398.849051,191.960813 370.921192,144.033657 364.320299,134.809034 C357.152299,111.968034 396.2459,93.6505 374.9849,75.7895 C365.3589,67.7305 352.6369,64.8785 340.7029,62.0205 C258.0729,42.1765 169.2949,52.1845 92.6589,88.6755 C81.0019,86.2225 68.8569,91.0165 60.3799,99.4365 C20.5549,139.4645 74.8289,211.6865 86.6969,256.8125 C107.0589,307.1295 65.1149,315.5935 69.6129,358.1665 C73.1079,380.1605 95.3849,385.9735 114.1839,389.2975 C117.1969,390.0025 121.2249,390.1085 122.1969,393.2935 C125.2429,411.8845 135.6849,429.6015 149.7039,441.6255 C148.4779,445.2575 149.4139,449.6665 153.7369,452.8565 C192.9049,481.9635 242.292016,496.529913 291.1439,493.9115 C349.361999,490.791067 379.4689,457.4225 386.7339,448.8305 C426.9029,394.5835 422.103119,323.0095 413.909119,258.3605 C408.201016,213.324721 415.439183,261.018001 404.835051,216.877813 Z" id="Skin" fill="#ae5d29"/><path d="M225.3217,9.5415 C227.1517,3.8215 232.3317,0.3815 238.2617,1.0915 C243.5117,1.7115 249.1317,6.9215 248.4917,12.6715 C248.3717,13.7815 248.2117,14.8215 248.0217,15.8015 L248.0467,15.81025 L248.0467,15.81025 L248.0717,15.8115 L247.9417,16.1915 C247.5517,18.0215 247.0117,19.6615 246.2117,21.2115 C245.1917,24.1815 244.2117,27.1615 243.2417,30.1515 C244.6417,30.0915 246.0717,30.1715 247.5217,30.4415 C249.0217,26.6015 250.5317,22.7715 252.0317,18.9215 C253.6417,14.8115 254.7717,9.5315 257.9517,6.3515 C262.0217,2.2915 269.0817,1.4515 274.0417,4.3515 C279.2817,7.4115 281.1517,12.8515 280.0117,18.6815 C279.43239,21.6552931 277.445422,23.7248294 274.986877,25.0251205 L274.7217,25.1615 L272.8317,29.6415 C273.4117,29.3915 274.0117,29.1615 274.6617,28.9715 C275.6817,28.6715 276.6817,28.4815 277.6617,28.4015 C280.3617,23.5115 283.3317,18.7615 286.4017,14.1015 C289.9317,8.7415 296.8317,6.4615 302.6217,9.8515 C307.8017,12.8815 310.5817,20.8415 306.8717,26.0715 C304.0517,30.0415 301.3817,34.0915 298.7517,38.1815 C299.2017,38.2615 299.6517,38.3615 300.0817,38.4915 C300.2817,38.2215 300.4917,37.9515 300.7117,37.6815 C303.5817,34.1215 306.9217,31.4515 310.3517,28.4915 C313.5617,25.7115 315.0417,21.3415 319.2617,19.2315 C324.5717,16.5815 330.9717,17.8515 334.1317,23.1315 C340.9117,34.4415 329.5317,42.7015 322.2517,49.5515 C328.5817,45.6015 335.1717,41.9915 341.9317,38.8715 C345.7317,37.1215 349.5917,35.4315 353.5117,33.9715 C359.3217,31.8115 364.0217,32.5025 368.7917,36.5215 C370.9217,38.3215 371.9817,42.2525 371.0017,44.8715 C369.1017,49.8915 366.1017,52.9415 360.8417,54.3915 C357.1417,55.4115 353.3517,56.1015 349.6517,57.1715 C343.4517,58.9515 337.4317,61.1215 331.5917,63.8315 C332.0117,64.0915 332.4117,64.3715 332.7817,64.6915 C337.1417,63.2815 341.5817,62.0615 346.0417,61.0215 C353.438575,59.287125 360.967286,58.11525 368.528956,57.3822788 L371.041055,57.1484247 C380.106521,56.2784643 391.007771,54.6729286 396.5717,63.3515 C398.4017,66.2115 398.6017,70.9315 396.5717,73.7615 C392.6917,79.2015 388.8317,80.2815 382.4117,80.3815 C388.7317,81.0515 395.0417,81.8815 401.3217,82.8515 C405.650271,83.5115 409.978843,84.2596633 414.288522,85.0896924 L416.4417,85.5115 C421.6917,86.5615 427.5517,87.1715 432.0617,90.2115 C441.9017,96.8515 437.2817,109.7815 426.3817,111.1615 C421.1117,111.8215 415.2617,109.5915 410.0917,108.5515 C405.0717,107.5415 400.0317,106.6515 394.9717,105.8715 C392.3517,105.4615 389.7317,105.1015 387.1017,104.7715 C392.4517,105.5415 397.7617,106.6315 402.9317,108.1715 L404.367786,108.60485 C414.362598,111.650948 427.853793,116.50243 430.9717,127.1815 C432.8617,133.6715 427.6917,139.3315 421.4317,139.7115 C415.6117,140.0615 410.7617,136.5915 405.8217,134.0315 C402.2217,132.1715 398.5617,130.7815 394.6817,129.5915 C390.6717,128.3615 386.5817,127.3415 382.4617,126.5115 C385.943518,128.429682 389.334427,130.537946 392.589348,132.896399 L394.085527,134.00174 C402.736936,140.447976 415.9295,150.4281 412.8817,162.5115 C411.9217,166.3215 407.6717,169.9615 403.5917,169.5715 C392.9717,168.5815 387.1117,157.2715 379.1017,151.2115 C377.0117,149.6315 374.7217,148.0715 372.3217,146.5515 C384.4617,161.0315 394.1217,177.7715 401.4717,195.0615 C417.625169,233.099357 422.580714,268.325487 422.69956,309.224756 L422.7017,310.4915 C422.7217,333.0515 422.2117,356.0215 420.0117,378.4815 C417.9717,399.2315 414.2317,419.7115 404.8217,438.5025 C389.0517,470.0115 358.3217,494.5515 324.4317,503.8915 C286.7217,514.2915 244.5717,506.1615 213.6817,482.1615 C205.8017,476.0415 216.2517,462.7525 224.3017,468.4015 C256.4517,490.9515 298.0317,498.0915 334.9317,482.8315 C364.2017,470.7315 387.7717,444.7015 397.7617,414.7315 C404.120396,395.665196 405.971648,375.335659 408.239817,355.465479 L408.3917,354.1415 C410.7917,333.3615 412.1817,312.4415 412.1617,291.5215 C412.1317,252.6715 406.5517,220.6915 389.4617,185.4515 C381.4217,168.8515 370.9917,153.5025 358.5317,140.0315 C354.7517,140.8015 350.7317,139.7215 346.9117,139.3115 C344.9617,139.1015 343.0117,138.9015 341.0617,138.7215 C343.0537,140.0095 345.0073,141.3487 346.92762,142.719132 L349.446292,144.535382 C357.327907,150.179865 367.327478,156.609056 365.3017,167.5215 C364.7517,170.4715 361.8117,173.1815 358.9617,173.8515 C348.6317,176.3115 341.5317,166.2715 334.5517,160.3115 C328.4817,155.1315 322.1317,150.4915 315.6617,145.8415 C314.1917,144.7915 312.7117,143.7415 311.2217,142.7015 C312.6217,144.3335 313.9833,145.9911 315.31162,147.66406 L317.275475,150.153141 C323.217958,157.588482 331.78436,167.252989 326.4917,176.8915 C324.9917,179.6115 321.7917,181.4215 318.6917,181.3615 C308.0317,181.1415 303.7917,169.0415 298.7917,161.4015 C294.4917,154.8515 289.8217,148.6815 284.9917,142.5115 C283.6617,140.8215 282.3217,139.1315 280.9617,137.4415 C258.5717,138.6015 236.2617,141.5615 214.3417,146.2915 C199.2817,149.5415 184.4717,153.7525 169.7717,158.3615 L168.550042,158.750131 C160.594514,161.311565 152.397554,164.589793 146.6617,170.2115 C145.8429,174.0847 146.471444,178.1695 147.25471,182.037622 L147.86518,184.998365 C150.3804,197.37905 152.0942,209.5305 150.8117,222.2415 C149.4817,235.3515 145.5317,247.1415 140.7117,259.3215 C138.4317,265.0615 136.0717,264.0215 135.2617,270.1815 C134.6412,274.8735 135.024975,279.717225 135.448849,284.448601 L135.803076,288.459623 C136.692069,298.966608 137.138469,310.421992 130.2517,319.0915 C129.1817,320.4215 126.8917,319.8915 126.1317,318.5615 C125.8317,318.0315 125.5117,317.5215 125.1617,317.0315 C121.8417,312.2215 116.7517,309.4815 110.9317,308.4215 C110.1917,308.2915 110.4817,307.3015 111.1017,307.2215 C116.0217,306.6415 120.6817,307.8715 124.6417,310.4115 C122.763793,303.917895 108.225529,307.075859 103.44629,308.337768 L103.2817,308.3815 C97.3217,309.9815 91.6817,312.5815 86.7117,316.2615 C76.7117,323.6615 70.9317,335.2015 71.2217,347.6315 C71.5117,359.8515 77.8217,371.1415 88.6617,376.9915 C93.8917,379.8115 99.8417,381.1715 105.7617,381.1115 C111.9417,381.0515 117.4417,378.3415 123.6317,378.7215 C127.2117,378.9415 129.9517,382.7815 127.8817,386.1315 C126.5017,388.3715 124.7017,390.1315 122.6217,391.4815 C127.6917,403.1715 134.1617,414.3215 141.6217,424.6115 C145.7517,430.3215 150.4317,435.5915 155.5817,440.4015 C159.6017,444.1615 168.3117,448.5115 167.8217,454.7815 C167.6517,457.0415 166.4817,458.4215 164.4217,459.2615 C158.017167,461.879767 150.229462,452.864234 145.945791,448.517885 L145.6017,448.1715 C140.2617,442.8515 135.3917,436.9715 131.1517,430.7315 C123.6317,419.6515 118.9617,407.1615 117.0317,394.0415 C106.7617,397.1315 93.1617,394.2315 84.7817,390.4415 C58.4417,378.5415 49.8317,343.0715 65.8417,319.4515 C68.9417,314.8815 72.8217,310.9715 77.2417,307.8115 C76.2717,307.2815 75.3617,306.6015 74.5517,305.7415 C70.0709308,300.981885 66.9030314,294.770716 63.7589571,289.046006 L63.3817,288.3615 C60.5905889,283.3215 57.9575025,278.202488 55.4894641,273.004463 L54.5717,271.0515 C49.0617,259.2015 44.2317,254.0215 40.3017,241.5615 C36.5217,229.5415 33.5417,217.2915 31.6117,204.8315 L31.098823,201.533414 C29.9826333,194.303411 28.9270333,186.572167 29.7417,179.2315 C24.1317,181.0615 18.4917,182.1915 12.9417,179.4415 C9.2817,177.6315 7.2617,172.3515 8.5117,168.5615 C9.4217,165.7715 10.9417,163.5815 12.8717,161.8615 C11.7217,161.2815 10.6417,160.5415 9.6917,159.7215 L8.8617,159.0025 L8.8617,159.0025 C5.5017,156.0815 5.2617,150.5315 7.3017,146.8715 C7.5017,146.5215 7.7017,146.1615 7.8917,145.8115 C9.8317,142.3415 13.8417,140.0715 17.8017,140.1315 C18.4417,140.1415 19.0817,140.1415 19.7317,140.1315 C17.8817,139.7215 16.0717,139.0915 14.3517,138.0315 C6.5917,133.2615 7.5717,120.3315 16.9617,118.0515 C20.9017,117.1015 25.2517,117.4915 29.5917,118.5115 C29.4317,118.4215 29.2717,118.3315 29.1117,118.2315 C25.8317,116.2215 23.0817,112.2915 23.3917,108.2615 C23.7317,103.8015 25.1717,100.6215 29.1117,98.2815 C32.5317,96.2615 37.3717,96.0715 40.7717,98.2815 C43.7217,100.2115 46.6117,102.3415 49.3917,104.6315 C46.6017,101.2015 44.1817,97.4715 43.2017,93.5115 C41.9917,88.5815 44.0117,83.2115 48.4517,80.6115 C51.9917,78.5415 55.7317,78.7715 59.0717,80.3715 C58.8917,77.7815 59.5217,75.1415 61.2417,72.8015 C64.7617,68.0025 71.1617,65.2415 76.7317,68.7415 C77.4617,69.2015 78.4417,69.9915 79.3917,70.9615 C77.5417,65.0715 79.2117,58.8915 85.5217,56.2315 C89.3717,54.6015 94.5817,55.4215 97.9217,58.2315 C95.8017,46.7615 112.7317,38.3315 119.3117,50.1815 C120.805033,52.8659444 122.282564,55.6926111 123.603826,58.5842435 L124.0917,59.6715 L124.1417,59.6515 L123.80545,58.8565 L123.80545,58.8565 L123.4617,58.0615 C121.6317,53.8115 119.3017,49.3915 118.6617,44.7815 C117.7217,37.9615 120.7617,31.4915 128.1817,30.4915 C132.0117,29.9715 136.2717,31.7115 138.8417,34.7525 C137.4517,24.1715 149.2717,16.4815 157.7817,24.3815 C161.8117,28.1215 163.9617,33.5915 166.5217,38.3915 C167.9717,41.1015 169.4517,43.8015 170.9017,46.5215 C171.2717,46.0815 171.6717,45.6415 172.0917,45.2115 C169.9417,38.7715 168.2717,32.1715 166.8617,25.5315 C165.5217,19.2715 168.6517,12.7715 175.1117,11.0025 C180.9817,9.3815 188.3317,13.0025 189.6417,19.2525 C190.5617,23.6515 191.6517,28.0025 192.8517,32.3315 C193.6717,32.1315 194.4817,31.9915 195.2817,31.8915 C195.348367,31.0781667 195.423922,30.2603889 195.508367,29.4470556 L195.823115,26.5543536 C196.52242,19.9449176 197.227753,12.3999211 200.6817,6.7815 C206.5717,-2.8185 221.6717,1.1615 221.8317,12.5115 C221.9217,18.3815 219.5317,24.2015 218.7017,30.0115 C218.3417,32.5415 218.1317,35.1015 218.0117,37.6615 C219.6217,29.1615 221.8317,20.7715 224.3917,12.5115 C224.6917,11.5215 225.0117,10.5315 225.3217,9.5415 Z M95.0416,337.3218 C108.2916,335.2718 120.4016,342.6618 128.2516,353.0118 C129.6816,354.9018 128.7416,357.5718 127.4516,359.1618 C126.5216,360.3318 125.2716,360.4718 123.8616,360.6518 C122.2416,360.8618 120.1916,359.5518 119.4816,358.1418 C114.4316,348.0618 105.4216,341.6918 95.0416,337.7718 C94.8516,337.7018 94.7916,337.3618 95.0416,337.3218 Z M113.409421,156.717337 L113.8107,156.2865 C116.4917,153.5055 112.2547,149.2575 109.5677,152.0445 C106.7387,154.9785 104.8587,158.5425 103.0507,162.1545 C101.3277,165.5985 106.5017,168.6405 108.2317,165.1835 L109.019473,163.612241 C110.255859,161.169068 111.574416,158.755335 113.409421,156.717337 L113.409421,156.717337 Z M76.1987,151.0095 C79.9987,150.3695 78.3877,144.5865 74.6037,145.2245 C69.7017,146.0505 64.8187,146.9895 59.9157,147.8165 C56.1167,148.4565 57.7277,154.2395 61.5117,153.6025 C66.4137,152.7755 71.2967,151.8365 76.1987,151.0095 Z M302.5667,111.5285 C298.8957,110.3035 297.3207,116.0965 300.9717,117.3145 C306.0167,118.9975 311.0207,120.7225 315.8067,123.0595 C319.2637,124.7475 322.3087,119.5745 318.8347,117.8785 C313.5817,115.3135 308.1047,113.3765 302.5667,111.5285 Z M75.3347,103.7525 C71.7497,102.3185 70.1927,108.1195 73.7397,109.5385 L86.6997,114.7215 L86.6997,114.7215 C90.2847,116.1555 91.8417,110.3555 88.2947,108.9365 L75.3347,103.7525 L75.3347,103.7525 Z M347.820662,89.6649702 L347.3477,89.3665 C344.0977,87.2605 341.0867,92.4525 344.3187,94.5475 C346.216167,95.7767 348.523056,96.6104156 350.26047,98.0746994 L350.6237,98.3985 C353.4297,101.0485 357.6807,96.8145 354.8667,94.1555 C352.80795,92.2120625 350.201641,91.1299531 347.820662,89.6649702 L347.820662,89.6649702 Z" id="Ink" fill="#000"/></g></g><g id="Beard" transform="translate(527.000000, 518.000000) scale(1 1)" fill="#000"><g id="Beard/None" stroke="none" stroke-width="1" fill="none" fill-rule="evenodd" fill-opacity="0"/></g><g id="Face" transform="translate(563.000000, 366.000000) scale(1 1)" fill="#000"><g id="Face/Smile" stroke="none" stroke-width="1" fill="none" fill-rule="evenodd"><path d="M146.586567,240.926554 C139.864291,238.184203 133.866322,233.609781 129.481228,227.766254 C127.956691,225.734803 127.561405,223.589624 127.881219,221.627583 C128.240828,219.421406 129.546036,217.4219 131.326046,216.080693 C133.111571,214.735331 135.345035,214.071832 137.504329,214.410065 C139.380629,214.703969 141.248396,215.731287 142.726594,217.861908 L143.035427,218.287981 C145.642441,221.814933 149.039621,224.708755 152.91047,226.573991 C156.641339,228.371775 160.813939,229.21087 165.131898,228.722919 C173.355732,227.793938 179.024012,223.346401 185.048774,217.30672 C185.795561,216.544195 186.542826,215.757766 187.293714,214.958678 C187.767915,214.234308 188.425986,213.768756 189.156624,213.524488 C189.967867,213.253272 190.885573,213.268617 191.726122,213.56195 C192.536835,213.844871 193.261572,214.380994 193.747527,215.094538 C194.209389,215.772704 194.47125,216.610486 194.386283,217.574143 C193.834826,223.833283 190.562474,229.419299 185.914235,233.805502 C180.751772,238.67694 173.908551,242.047034 167.465957,243.229031 C160.36811,244.531047 153.135593,243.598228 146.586567,240.926554 L146.586567,240.926554 Z M170.814304,144.367155 C178.365682,148.9572 189.871664,159.660291 181.748119,171.039573 C172.185929,181.073062 158.418535,169.568982 151.634201,164.366134 C145.343449,160.333898 138.275437,170.704507 144.112,175.412823 C193.135736,211.708059 213.030606,145.567387 174.633685,138.970386 C170.406047,138.243425 168.835891,142.947174 170.814304,144.367155 Z M82.9633,102.1464 C83.7976284,91.7901242 99.5703,89.4384 101.1393,99.6864 C102.5443,108.8664 100.8903,117.2994 96.7553,125.5644 C92.8043,133.4604 82.8737826,129.776544 82.1227826,122.586544 C81.1160984,112.948648 82.4443,108.588596 82.9633,102.1464 Z M203.027,97.5615 C205.226,94.6815 208.401,92.7155 212.205,93.8265 C224.09,97.2995 220.587,114.1725 216.413,122.3855 C214.145,126.8455 206.814,127.9765 203.501,124.0495 C198.101,117.6455 195.515,104.8565 202.38,98.5485 C202.566,98.2225 202.773,97.8935 203.027,97.5615 Z M96.5879,56.8305 L98.465271,56.501905 C104.27307,55.49746 111.4944,54.5323 115.6029,59.2015 C117.7819,61.6775 118.5319,66.2795 115.6029,68.6495 C110.4509,72.8195 104.7549,71.2035 98.5809,71.5565 C93.4929,71.8485 88.6029,72.6905 83.7019,74.0915 C72.9499,77.1645 64.1889,82.7745 55.0059,88.9345 C53.8009,89.7425 52.5709,88.2015 53.1459,87.0745 C58.4469,76.6915 68.7199,68.1625 79.0099,62.9635 C84.5019,60.1885 90.5119,57.8865 96.5879,56.8305 Z M192.192876,52.1793876 L193.629806,52.4734684 C209.267042,55.742077 229.583473,62.2713911 236.988459,77.6308459 C237.270623,79.8027272 236.97249,80.2682047 236.730054,80.5723213 L236.649336,80.6735209 C236.449568,80.9332186 236.290169,81.2912104 235.348782,81.5868073 C235.087547,81.5245653 234.823712,81.4586426 234.557082,81.3887687 C231.162766,80.499243 228.477205,79.2737961 225.877298,78.0022488 L223.058339,76.6134493 C219.787784,75.0098309 216.488352,73.4645766 212.991711,72.3238115 C205.52958,69.8898666 197.854137,68.1753043 190.059777,67.259767 C188.37041,67.0615005 186.743655,66.4913394 185.460262,65.5141761 C184.242065,64.5866523 183.311441,63.3024737 182.887128,61.5955207 C182.33722,59.3864508 182.495251,57.7140037 183.680513,55.7210991 C184.571756,54.2244705 185.846982,53.1871113 187.311265,52.5914244 C188.804038,51.9841473 190.503545,51.840982 192.192876,52.1793876 Z" id="Ink" fill="#000"/></g></g><g id="Mask" transform="translate(428.000000, 479.000000) scale(1 1)" fill="#000"><g id="Mask/None" stroke="none" stroke-width="1" fill="none" fill-rule="evenodd" fill-opacity="0"/></g><g id="Accessories" transform="translate(451.000000, 421.000000) scale(1 1)" fill="#000"><g id="Accessories/Glasses" stroke="none" stroke-width="1" fill="none" fill-rule="evenodd"><path d="M389.0901,63.2824 C379.5561,127.7714 313.0021,134.9034 301.1771,70.8814 C303.0751,70.0504 304.4401,68.4144 304.1551,65.2384 C304.0881,51.2864 308.4191,36.5404 321.0051,28.7814 C334.0111,20.7754 349.2321,19.9814 364.2831,20.1834 C393.0051,19.4994 392.4011,43.5064 389.0901,63.2824 M290.7581,35.2354 C281.7441,34.8554 270.3401,35.1734 262.2651,40.6654 C260.0451,34.6874 254.2771,28.3044 248.4491,24.8914 C270.1111,25.5254 292.4091,23.3934 314.2331,21.7384 C309.0091,25.2994 304.1491,30.6494 300.9901,36.8344 C298.0591,35.2714 293.8611,35.4174 290.7581,35.2354 M251.0261,70.1194 C226.0311,156.1554 163.6401,118.6554 156.8381,107.6294 C144.5691,89.3834 142.2611,45.0294 152.9481,33.1704 C168.2461,22.4464 189.9031,25.2064 207.9751,24.9434 C241.1761,25.3914 264.7561,35.3234 251.0261,70.1194 M418.6031,30.5484 C411.8121,29.6604 404.5551,29.4814 398.2411,32.4714 C396.2971,24.2084 390.1941,17.3004 383.3031,14.2604 C382.4691,13.2144 382.5941,12.6524 379.7451,12.8094 C362.2501,7.5514 342.6731,10.3334 325.8611,15.7254 C299.3091,17.9614 271.4521,19.7244 244.6771,22.8054 C219.5951,11.5414 143.9021,9.8904 139.1981,37.6534 C133.2811,36.7684 123.2041,32.1114 118.2321,38.4284 C81.7611,32.2454 44.0761,40.8384 7.4471,44.6654 C-1.7729,46.3634 -6.5219,64.6614 3.9441,64.4114 C9.8281,62.8144 3.7631,53.0174 11.6861,52.2804 C47.0271,48.4204 81.5951,42.9444 117.2981,42.3034 C116.0561,48.4684 140.9121,48.8694 141.2791,45.2694 C141.3321,45.2964 141.3881,45.3144 141.4421,45.3384 C135.3001,68.2284 140.8441,101.1704 151.9441,115.3644 C167.4961,133.9504 206.5411,139.2824 223.8541,127.3244 C246.1871,116.2874 269.4201,60.8854 262.8941,42.4794 C274.7381,38.7254 286.4471,39.8524 298.7391,41.7644 C295.9251,49.7134 291.0671,69.2814 298.0561,70.9784 C296.7731,109.8284 332.1301,134.0694 364.7241,118.1324 C392.9351,104.8894 402.8011,62.9714 399.3491,37.5284 C402.8611,44.3144 432.3491,36.9264 418.6031,30.5484" id="Ink" fill="#000"/></g></g></g></svg>