<svg viewBox="12.477272727272748 156.25 1341.306818181818 2031.2499999999998" xmlns="http://www.w3.org/2000/svg" overflow="visible" xmlns:xlink="http://www.w3.org/1999/xlink" width="1341.306818181818px" height="2031.2499999999998px"><g id="Master/Character/Sitting" stroke="none" stroke-width="1" fill="none" fill-rule="evenodd"><g id="Sitting" transform="translate(-81.000000, 637.000000) scale(1 1)"><g id="Sitting/One Leg Up 1" stroke="none" stroke-width="1" fill="none" fill-rule="evenodd"><path d="M822.1619,829.317267 C824.4009,852.677317 819.8229,874.985174 808.9179,893.844835 L805.3699,899.980653 L812.1229,902.342175 C824.4129,906.640597 838.0799,908.730204 853.9059,908.730204 C870.1929,908.730204 887.1299,906.462276 900.7389,904.638673 L909.4519,903.472198 L905.1719,895.9039 C901.7299,889.821283 901.0929,882.450025 900.4179,874.646265 C900.2359,872.549762 900.0489,870.382325 899.8029,868.237547 C886.9079,752.977166 870.6079,636.212386 854.8449,523.292837 C850.6959,493.579241 846.4069,462.85286 842.2459,432.62893 L830.3099,433.089018 C827.0989,489.032548 823.9829,545.921869 820.9699,600.938327 C819.6449,625.13087 818.3189,649.324397 816.9829,673.513984 C812.2199,734.671186 813.8649,784.19122 822.1619,829.317267 M827.0329,1520.4904 C809.5039,1520.4904 791.9409,1518.66483 774.8339,1515.06491 C721.3009,1503.82773 672.6659,1477.31505 631.2819,1453.34713 C629.1689,1452.14913 627.0249,1450.95113 624.8239,1449.71963 C608.6219,1440.65481 588.4589,1429.37626 575.8229,1415.61697 C561.9609,1400.52274 559.5749,1385.48269 568.3159,1368.28408 L569.6989,1365.56296 L568.2539,1362.87238 C559.2029,1346.02647 559.8759,1325.1836 569.8899,1312.18883 L578.3059,1301.26888 L564.4689,1302.73683 C550.5169,1304.21758 536.4549,1306.22345 522.8549,1308.1633 C507.7659,1310.31596 492.1609,1312.54153 476.7929,1314.03115 L472.5219,1314.44592 L471.5399,1318.56109 C470.9929,1320.85168 470.3179,1322.24278 465.5769,1322.24278 C461.4659,1322.24278 455.9409,1321.03887 450.0939,1319.76501 C442.8369,1318.18475 434.6109,1316.39267 426.6789,1316.39267 C423.1899,1316.39267 420.0519,1316.72468 417.0839,1317.41038 L415.3569,1317.80742 L414.1279,1319.0665 C413.3419,1319.87141 412.0039,1320.3709 410.6369,1320.3709 C409.6029,1320.3709 408.6439,1320.08323 408.0029,1319.58176 L406.0649,1318.06554 L403.6059,1318.33548 C360.7629,1323.03981 323.8199,1331.29577 290.6699,1343.57234 L290.5199,1343.62849 L289.8009,1343.93883 C277.8139,1349.11211 265.4209,1354.46174 254.1339,1354.46174 C245.8829,1354.46174 239.1829,1351.65491 233.0469,1345.62845 L231.3129,1343.92701 L228.8669,1343.90336 C204.0489,1343.6748 192.7089,1314.73458 191.1409,1295.33799 L190.9439,1292.89568 L189.0519,1291.30754 C145.7999,1255.01084 120.2659,1205.16077 110.9879,1138.90713 C102.5379,1078.55878 109.0259,1014.9307 116.4869,960.647226 C133.7459,819.970686 151.7469,693.86031 197.5049,574.253232 L199.6429,568.662229 L193.9459,566.614985 C174.1829,559.513672 159.0789,551.040962 147.7699,540.712138 L146.9869,539.994913 L146.0009,539.589996 C129.7929,532.931038 121.8549,508.350327 119.8079,500.976114 L119.6439,500.381054 L119.3579,499.833283 C116.0509,493.489588 115.2879,484.665162 117.2659,475.622022 L117.4779,474.64766 L117.3549,473.657535 C116.2869,465.071528 119.8319,456.095381 123.5849,446.591168 C125.2999,442.249397 127.0719,437.761816 128.3669,433.291969 C132.8189,420.517881 137.2659,407.518183 141.5679,394.94409 C151.2199,366.733907 161.1989,337.563155 171.8299,309.186473 L173.2839,305.305775 L170.0809,302.63096 C164.6129,298.063578 166.4389,292.687348 174.3239,279.832474 C176.1869,276.796091 177.9489,273.923251 179.2889,271.092775 C189.3959,253.628156 200.2279,236.863027 211.4899,221.257478 L211.7219,220.937288 L211.9069,220.590498 C269.6959,112.661967 372.2029,53.2239364 500.5439,53.2239364 L503.1599,53.2288624 L504.6059,52.3589319 C528.6599,37.8942427 545.8309,13.0751139 557.0999,-23.5151705 L557.4599,-24.6816459 L557.3209,-25.8934405 C556.9349,-29.2657761 556.5119,-33.6873484 556.6569,-37.9778893 C557.0239,-48.8436472 561.2829,-58.539974 568.3409,-64.5812132 C581.7319,-76.0430163 602.0609,-77.0026 621.7359,-77.0026 L624.5609,-77.0026 C649.7159,-76.9257545 667.4749,-72.5583681 680.4509,-63.2511948 C695.5269,-52.4376525 703.8589,-34.9818997 705.9239,-9.88691518 C706.5409,-2.37772972 706.5199,5.40140021 706.5009,12.9243784 L706.4959,15.0238371 L706.7489,15.8573153 C708.5569,21.821709 710.6749,27.5526106 713.0429,32.8923882 L715.4789,38.3858569 L721.0189,35.9090671 C724.6019,34.308119 729.1439,33.4844927 734.9079,33.3918841 C736.5699,33.3534613 738.1909,33.3357277 739.8259,33.3357277 C753.2089,33.3357277 767.5249,34.5573743 781.3709,35.7386277 C791.8029,36.6292474 802.5909,37.5504083 813.0329,37.9592658 L813.1759,37.965177 C813.1759,37.965177 814.6179,37.9563102 815.2649,37.9563102 C840.6439,37.9563102 859.0419,41.9473507 873.1629,50.5175952 C888.3679,59.7439823 899.3009,74.5525058 907.5679,97.1204553 C951.9099,226.480017 970.1399,365.817672 986.2199,488.747826 C995.3409,553.03402 998.1149,618.93791 1000.7979,682.671407 C1003.6309,749.942753 1006.5589,819.504687 1016.9279,887.50311 L1017.7469,892.878355 L1023.2529,892.522698 C1047.4839,890.959187 1073.6689,887.590793 1101.3909,884.024373 C1143.5109,878.606764 1187.0649,873.003939 1229.1689,873.003939 C1288.0389,873.003939 1332.6749,884.587907 1365.6059,908.411985 C1388.5639,930.045966 1400.4409,959.336912 1399.9529,993.141054 C1399.2629,1040.90349 1373.9999,1093.70818 1335.5929,1127.667 L1335.4479,1127.8 C1286.9009,1173.66298 1198.2849,1213.44136 1072.0619,1246.03076 C955.9919,1275.99853 835.9319,1292.28486 774.6949,1299.3241 L759.5389,1301.0679 L771.8409,1309.96129 C776.8199,1313.56219 781.3629,1316.73158 785.7299,1319.65269 L788.5469,1321.53541 L791.6329,1320.12066 C800.4329,1316.08529 806.0219,1315.23802 809.1629,1315.23802 C811.9499,1315.23802 815.3119,1315.84293 815.4969,1318.72759 C815.6179,1320.61622 814.2739,1323.42009 811.4369,1323.77477 L796.3729,1325.65452 L808.6729,1334.42673 C816.8889,1340.2867 829.1469,1347.3486 843.3419,1355.52772 C889.7809,1382.28474 959.9609,1422.72124 947.8909,1458.23076 L947.0989,1460.56371 L948.2209,1462.76366 C951.4639,1469.12016 951.7409,1475.0215 949.0649,1480.80364 C943.3349,1493.19547 925.4099,1502.60214 910.1869,1506.42866 L909.9259,1506.49467 L909.6709,1506.58333 C883.1829,1515.81169 855.3789,1520.4904 827.0329,1520.4904" id="Skin" fill="#ae5d29"/><path d="M707.455609,1253.82117 C707.925609,1253.09224 708.345609,1252.0678 708.574609,1251.16157 C711.786993,1255.73321 763.178061,1300.77235 814,1339 C861.203945,1374.50624 915.345151,1401.33195 936.364085,1430.933 C944.352102,1442.18256 948.411739,1475.15431 946.875609,1480.69184 C944.586478,1483.59556 930.846145,1491.56361 905.654609,1504.59597 C897.116147,1506.9055 828.585609,1525.49109 798.144609,1519.16617 C786.945609,1517.46304 706.2,1491.61982 696,1487 L609.230637,1436.64847 C607.33472,1435.81662 605.448952,1434.98953 603.574609,1434.16778 L601.037781,1433.15734 C581.686959,1425.41073 557,1409 562.054576,1385.34463 C568,1361 557.333669,1355.67954 559.776271,1339.64172 C561.890191,1325.76198 566.502941,1311.63077 573.875609,1298.1577 C602.355609,1330.19012 638.505609,1327.39262 656.715609,1287.5784 L657.133201,1286.76658 L657.54442,1285.95263 C663.498089,1274.07418 669.127481,1258.98355 683.225609,1254.31369 C691.005609,1249.05359 700.955609,1247.9602 707.455609,1253.82117 Z M447.201338,1164.47908 L448.963701,1168.52621 C457.531432,1188.12597 475.719509,1228.85417 482.945609,1244.92229 C481.335609,1241.94748 479.495609,1239.09087 477.425609,1236.39088 C471.376152,1228.50576 478.473332,1252.33269 478.528786,1277.20392 C478.580216,1300.27063 471.455909,1324.23561 469.814609,1324.63376 C467.795609,1325.12627 439.617377,1311.27442 413.201338,1315.47908 C391.873703,1318.87382 359.5369,1322.69975 327.411743,1331.47009 C301.299474,1338.59888 275.327037,1350.69094 255.520339,1354.7997 C239.428206,1358.1379 236.282732,1340.7012 225.768617,1341.77955 C216.296176,1342.75105 214.771193,1342.51727 212.425609,1340.55895 C199.275609,1329.68513 186.845609,1286.71232 188.085609,1270.56855 C199,1185 367.471338,1157.41636 447.201338,1164.47908 Z" id="Shoes" fill="#FFF"/><path d="M281.583126,595.263693 L287.058999,596.7679 L529.635171,664.647202 C531.185138,665.66144 532.339936,666.397472 533.448657,667.071081 L534.237475,667.544525 L538.828201,670.266491 L537.760843,675.495699 C535.359689,687.259448 535.002753,699.359522 536.092919,716.254732 L536.154969,717.198317 L536.28791,719.115765 L536.48092,721.729077 L536.549572,722.620239 L537.869331,738.724914 L538.118115,741.956203 C538.312181,744.566851 538.454763,746.751155 538.581262,749.032779 L538.610185,749.561274 L538.799107,753.258383 L538.869414,754.844257 C539.525455,770.952358 538.389444,786.68516 535.446249,809.440807 L535.300045,810.565632 L534.881,813.723 L534.591346,816.485147 L533.374507,827.776254 L532.951256,831.811639 C530.198873,858.424513 528.837629,879.315165 529.188308,898.785534 L529.20727,899.757889 C529.743646,925.304349 533.665832,942.615188 540.186433,948.570194 L540.384822,948.74717 L540.557,948.893 L540.596579,948.897346 C541.238811,948.931758 542.2888,948.528074 544.326888,947.296032 L545.180356,946.767169 C545.707518,946.434529 546.707316,945.802864 547.172392,945.515986 L547.683792,945.20642 C548.631021,944.642211 549.454179,944.205295 550.315754,943.833966 C551.653994,943.2572 553.016307,942.883799 554.36765,942.771735 L554.772689,942.746014 L554.832,942.744 L555.20335,942.417432 C556.42797,941.318473 557.594309,940.103818 558.660436,938.813744 L559.11109,938.256355 L559.500778,937.753715 L562.125,934.298 L563.906913,931.213125 C565.273806,928.845223 566.512377,926.327346 567.624767,923.668454 L568.036003,922.664777 L568.396021,921.750251 L583.957106,881.458855 L582.890071,924.637616 C582.527822,939.296441 588.011473,946.898754 594.763873,946.975522 C601.86919,947.056303 609.143538,939.245997 611.245966,925.37888 L611.316406,924.898306 L626.195701,926.784883 C625.221468,935.477978 628.326142,949.21691 633.302179,956.961529 C635.462216,960.323374 637.494789,961.905809 638.948302,962.028522 C640.707022,962.177001 643.480437,960.534569 647.199011,955.746664 L647.194805,955.750693 L647.119,955.847 L647.278333,955.624457 C650.514557,950.994188 652.312605,944.776016 653.257244,935.924296 L653.323275,935.287537 L653.385046,934.656514 L658.595561,879.865473 L668.235426,934.052932 C669.180914,939.3677 670.243912,944.702991 671.424678,950.06868 L671.646805,951.067693 L671.810323,951.006668 C672.164945,950.866706 672.617526,950.654746 673.14575,950.356779 L673.376698,950.223772 L673.592148,950.09486 C676.808615,948.136074 680.609725,944.180315 682.124866,941.610484 L682.268654,941.358246 L683.992963,938.220904 L687.516643,937.588578 C688.130637,937.478396 688.785528,937.194054 689.25668,936.860683 L689.42431,936.733615 L691.957388,934.66926 L695.194052,935.118766 C742.40798,941.675797 777.182384,936.150173 799.311981,912.971843 L799.978704,912.26406 L803.428046,908.552733 L808.158643,910.367494 C829.193332,918.436866 1111.65975,882.832531 1135.23096,880.623441 L1140.45897,880.141583 L1144.82828,879.752622 C1181.82073,876.514049 1215.10312,877.000864 1247.08224,877.351422 L1249.13686,877.376516 L1251.99814,877.548251 L1254.63414,877.717292 C1281.48282,879.497489 1302.70243,882.789862 1321.90622,889.082353 C1345.98408,896.971927 1365.00467,909.250133 1378.45929,927.088904 L1379.0598,927.893422 L1379.71197,928.889534 C1397.3754,956.158632 1402.69837,989.057083 1396.56231,1023.49355 C1391.0047,1054.68368 1376.16545,1085.74 1355.39825,1110.72472 L1354.73346,1111.52003 L1353.53436,1113.02165 C1309.6016,1167.21025 1219.14099,1210.77282 1093.48411,1245.4189 L1089.66557,1246.46605 L1085.74695,1247.52896 C992.635557,1272.64624 888.017932,1291.08637 785.595251,1303.447 L782.395272,1303.8313 L776.065198,1304.58038 L754.926825,1307.05726 L768.381,1293.362 L768.31992,1293.34055 C767.387528,1293.03406 759.710372,1294.37985 745.288453,1297.37791 L740.667942,1293.53127 C738.014107,1291.30948 736.021395,1289.59808 734.13178,1287.89962 L733.242214,1287.0941 L729.686594,1283.82172 L730.330233,1279.81863 C730.332631,1279.75143 730.302843,1279.64418 730.170505,1279.4024 L730.107305,1279.29027 C719.679067,1267.09169 714.061069,1260.63847 713.253311,1259.93063 L713.051119,1259.75556 L712.757,1259.509 L712.634945,1259.41552 C710.751362,1258.00937 699.983462,1257.64503 680.331245,1258.3225 C666.778448,1235.30661 659.110096,1222.58322 657.32619,1220.15234 L656.683418,1219.27361 L650.025306,1219.22369 L652.547116,1214.98567 C656.219832,1208.8135 658.478769,1201.89106 659.427,1194.26277 L659.520422,1193.47112 L659.575,1192.957 L659.15639,1193.23584 C656.331936,1195.1517 654.683527,1197.05732 654.136566,1198.85723 L654.076213,1199.07271 L654.033547,1199.25345 L653.992822,1199.44214 L653.775555,1200.23026 C650.707629,1211.01933 644.190785,1219.49165 634.635737,1226.22044 C627.883734,1230.97529 530.815769,1264.81957 506.792123,1270.9406 L505.117216,1271.36528 L499.129646,1272.87603 L494.837724,1263.7533 C488.232845,1249.63174 479.676965,1230.77063 469.16656,1207.1628 L463.990809,1195.51015 L458.678,1183.499 L433.378,1168.649 L416.001194,1168.93882 C412.324328,1169.00382 408.945935,1169.06654 405.866156,1169.12697 L404.351152,1169.157 L394.774,1169.364 L393.048244,1169.54613 C352.974933,1173.83781 313.933824,1182.53371 276.938662,1195.52235 L275.05932,1196.18649 L273.100532,1196.88793 L272.055624,1197.22791 L270.196134,1197.84055 C244.05836,1206.52297 226.603778,1215.37091 214.077314,1227.13232 C199.530778,1240.79043 191.78266,1258.64383 190.748305,1283.43573 L190.717573,1284.22932 L190.107172,1301.30502 L177.95155,1289.29699 C141.755335,1253.54026 118.057253,1205.01052 107.952109,1149.72948 C98.6699483,1098.95065 101.359403,1044.48983 115.120293,995.411774 L115.326,994.682 L115.362182,994.187651 C116.392029,980.466948 118.878312,966.437583 122.796144,951.094163 L123.167634,949.651837 L123.547507,948.201627 C126.360115,937.552009 129.154608,928.410938 134.17688,913.198293 L134.73371,911.514281 L141.397563,891.524307 C175.926437,792.114384 221.476423,695.343234 276.965614,602.925552 L278.650146,600.126351 L281.583126,595.263693 Z" id="Pants" fill="#78E185"/><path d="M776.0743,1292.37047 C777.9043,1290.50777 778.6743,1288.06586 776.9643,1285.1994 C770.3543,1276.75665 756.6433,1282.52995 748.1143,1284.47934 C744.8933,1281.80102 741.6943,1279.11187 738.6143,1276.27496 C739.6843,1269.63581 731.7043,1265.22186 728.4243,1260.09967 C725.2043,1256.32796 722.1743,1252.04305 718.3133,1248.88108 C708.9043,1241.54156 695.8643,1246.50615 684.9443,1246.17222 C676.5343,1235.47373 667.8743,1225.11213 659.8743,1214.06001 C669.0943,1198.56537 669.7443,1180.41113 666.6843,1163.14343 C808.1143,1109.4786 930.5343,1007.872 1083.4943,984.388713 C1088.7543,983.51203 1091.7043,977.119138 1090.3933,972.430361 C1079.7233,946.967147 926.3933,1012.66913 903.4733,1024.56838 C835.8743,1056.93671 772.5533,1097.28384 706.8543,1132.88309 C693.1543,1140.16153 678.0843,1144.07311 663.1043,1147.85565 C640.0843,1072.30329 601.1433,1003.04532 571.2843,930.201812 C573.2233,926.842835 574.8743,923.316401 576.2743,919.691464 C575.2843,959.752931 614.2443,959.191459 619.6243,921.188721 C617.4043,940.997821 632.3843,983.423377 654.0043,955.586223 C659.0743,948.592458 660.8743,939.638469 661.7333,930.605677 C662.8443,936.850814 664.1043,943.066399 665.5043,949.262283 C671.0533,961.535848 686.2043,946.612533 689.7233,940.209791 C691.7543,939.845327 693.6543,938.919392 695.0443,937.786599 C733.2743,943.09595 778.3033,942.790588 806.3543,912.609046 C853.9343,930.861787 906.5943,914.509183 954.7143,907.220892 C1052.6343,895.961915 1150.9443,878.801581 1249.7443,880.112665 C1293.8543,882.673762 1345.8933,889.795582 1373.7943,927.433857 C1409.5843,981.689711 1389.3543,1054.96664 1349.8743,1101.93321 C1254.9043,1222.17573 928.9143,1274.46151 776.0743,1292.37047 M778.7443,1335.68256 C780.4733,1335.2196 782.2143,1334.79504 783.9443,1334.39216 C811.6643,1357.47159 942.2143,1417.40126 932.2843,1453.19751 C928.7743,1457.64988 920.3743,1458.66348 915.0633,1460.10164 C905.8133,1462.60363 896.4733,1464.7717 887.0443,1466.48567 C856.5633,1472.03143 824.9943,1472.99676 794.5533,1466.67184 C783.3543,1464.96871 773.2443,1460.19128 763.0443,1455.57145 C730.0843,1441.0717 693.7843,1425.05401 660.9833,1410.67345 C619.3133,1394.15438 546.2233,1361.59791 576.2843,1306.66336 C604.7643,1338.69579 640.9143,1335.89829 659.1243,1296.08406 C665.4043,1283.99766 670.8843,1267.70514 685.6343,1262.81935 C693.4143,1257.55926 703.3643,1256.46586 709.8643,1262.32684 C710.3343,1261.59791 710.7543,1260.57347 710.9833,1259.66724 C718.3133,1270.09878 724.6343,1281.08195 733.2233,1290.61711 C730.2743,1290.77471 699.5743,1313.49854 708.6343,1313.50937 C719.5343,1307.89466 730.3643,1303.21573 742.1343,1300.19068 C750.6643,1308.77036 760.0443,1316.75015 769.7643,1324.12709 C760.3243,1330.36238 751.8443,1337.99642 745.0243,1346.28058 C744.4343,1347.01049 745.1543,1347.95613 746.0343,1347.56113 C756.6243,1342.8428 767.5143,1338.69579 778.7443,1335.68256 M919.2643,1490.47034 C813.2333,1538.09788 700.9833,1485.06347 610.5633,1428.52233 C589.6943,1416.86934 562.2443,1400.35026 566.4643,1372.91697 C581.8343,1395.40537 607.1743,1408.21086 631.4943,1419.31223 C672.3543,1437.78168 713.4833,1455.66011 754.4443,1473.903 C758.3133,1486.73705 776.8133,1487.22957 787.9943,1490.07731 C837.7643,1499.73067 891.2643,1494.93354 938.1043,1475.68591 C935.3933,1483.71397 926.5243,1487.39702 919.2643,1490.47034 M496.2233,1305.01835 C493.6043,1305.35327 490.9833,1305.65764 488.3643,1305.95414 C488.6343,1302.48681 486.5443,1299.01948 483.1843,1297.94578 C484.6943,1290.59642 485.2543,1283.00178 484.4443,1275.54604 C488.8243,1286.86412 502.9643,1283.42633 511.9443,1280.16488 C524.7743,1276.67784 537.5243,1272.92584 550.2043,1268.9256 C555.2043,1278.21549 560.5043,1287.36648 567.0143,1295.7787 C543.3133,1297.88668 519.8343,1302.07309 496.2233,1305.01835 M485.7943,1269.41812 C485.1643,1270.7489 484.2643,1272.15652 484.2443,1273.75327 C483.6043,1268.24691 482.3543,1262.80852 480.4543,1257.59767 C482.2333,1261.53782 484.0143,1265.47797 485.7943,1269.41812 M470.8343,1239.89655 C459.1743,1224.69841 437.6243,1212.27611 417.7043,1216.51177 C416.4243,1216.78856 416.3933,1218.8463 417.7043,1219.1034 C444.4643,1222.73819 467.9643,1243.96476 468.8933,1271.40888 C471.0043,1283.8302 462.3643,1296.02496 465.2743,1307.94391 C464.6943,1307.98331 464.1143,1308.01287 463.5443,1308.05227 C463.3343,1308.84916 463.1433,1309.55839 462.8933,1310.17995 C465.7843,1310.66163 466.6343,1315.31199 463.2233,1316.13942 C461.2043,1316.63194 459.0943,1316.88805 456.9443,1316.99641 C446.0343,1314.05114 434.5243,1313.37048 424.0943,1309.01662 C413.7743,1304.45688 416.3543,1291.64155 412.7143,1282.76636 C410.0443,1272.53084 406.9733,1262.33669 403.1043,1252.51586 C402.8243,1251.72685 401.7543,1251.90514 401.6643,1252.70204 C398.9343,1272.29541 399.0243,1292.22272 399.6843,1311.97173 C396.1043,1312.33718 392.5443,1312.74104 388.9733,1313.18431 C389.2043,1307.66712 372.6543,1240.45901 363.9343,1257.70701 C368.3243,1276.66898 368.8543,1296.47808 369.3243,1315.99068 C343.4343,1320.25688 317.9243,1326.61037 293.1043,1335.259 C275.6143,1340.5585 254.8133,1356.24029 237.8343,1342.06462 C224.6843,1331.19079 220.2543,1312.21799 221.4943,1296.07421 C238.5943,1200.55515 373.6543,1189.39467 453.3843,1196.45739 C460.9143,1213.83345 468.5843,1231.15041 476.3543,1248.42796 C474.7443,1245.45315 472.9043,1242.59654 470.8343,1239.89655 M198.9043,1294.21249 C197.4443,1272.52197 201.0943,1245.52111 217.1643,1229.35665 C253.9443,1198.26001 305.4443,1188.47761 351.4043,1177.21961 C372.8133,1172.9938 394.5143,1170.18645 416.3043,1168.78769 C424.0343,1168.17697 433.8543,1169.92935 439.3133,1163.6064 C442.1243,1170.26525 444.9733,1176.91425 447.8243,1183.56325 C356.3243,1171.57535 165.4243,1213.22174 218.8843,1338.56774 C207.5633,1326.30402 200.0633,1311.37184 198.9043,1294.21249 M653.4943,1222.51163 C657.7043,1233.03183 662.8543,1243.04966 669.5843,1252.20952 C661.9343,1257.21449 655.6943,1264.61114 651.2943,1272.56137 C623.0943,1346.34067 592.9343,1306.82097 555.4643,1267.23134 C587.1743,1255.26412 629.1743,1246.29929 653.4943,1222.51163 M184.1043,1279.20052 C110.7743,1206.76088 96.5443,1086.08396 123.6343,991.224872 C126.0443,956.04919 138.3443,922.528371 149.3643,889.22426 C184.4543,788.198836 230.6043,691.005206 285.9543,599.239132 C354.6243,618.102596 423.1743,637.467444 492.0043,655.71132 C501.4833,657.770048 510.9733,661.838252 520.7043,662.429274 C524.1843,664.645608 527.6743,667.0885 531.2943,669.234897 C526.0243,695.053709 530.8843,721.413307 532.1143,747.388741 C533.2333,767.838115 531.0243,787.863923 528.3133,808.096589 C525.2843,837.529503 512.8133,933.264293 537.8043,950.789091 C546.2743,954.876996 553.8443,942.770888 557.4943,946.100314 C560.7843,943.805177 563.8543,940.820514 566.3543,937.530489 C576.0043,968.736471 591.7743,997.686717 601.5143,1028.92225 C614.4733,1074.824 657.0343,1149.12635 647.5843,1192.91027 C640.2743,1219.94955 608.2943,1225.78097 585.2143,1234.61774 C558.5443,1243.89679 531.5743,1252.41638 504.1643,1259.33232 C490.7843,1230.9337 477.9943,1202.26813 465.4443,1173.49519 C408.0843,1040.7427 357.2843,905.221266 311.8843,768.084374 C311.0343,765.040609 300.5943,732.06156 298.6843,741.261809 C298.5243,740.316173 297.3343,737.87328 296.8843,739.961559 C304.5843,772.162428 312.3933,804.353447 320.8443,836.37701 C300.0843,833.47115 277.7643,832.338357 258.7643,842.513792 C257.7843,843.035862 258.5043,844.325276 259.4733,844.168655 C281.9733,840.267907 303.6743,847.635986 325.2843,852.925636 C355.6343,956.236347 394.7943,1056.92587 436.2443,1156.35652 C423.4243,1152.26862 408.5443,1156.78994 395.1643,1157.11402 C353.0243,1161.46887 311.3643,1170.68882 271.5543,1185.02997 C221.5143,1201.25452 186.1343,1222.41214 184.1043,1279.20052 M143.7333,525.302232 C131.4143,512.03378 121.7333,495.091139 123.6043,477.114208 C131.0043,467.244134 133.4543,454.369697 137.7643,442.96198 C154.6143,395.227073 170.2543,347.127702 188.5943,299.905999 C227.6043,311.903753 265.9833,326.295148 302.1843,345.197029 C308.8443,348.596392 315.4343,352.122826 321.9443,355.777314 C328.7643,359.599259 336.2043,366.23841 344.3843,364.337288 C335.4443,376.995017 317.0343,390.164966 313.9243,404.791785 C313.2543,409.422445 316.5343,413.717208 321.5743,412.682919 C400.4643,468.72169 481.9343,523.578417 556.5043,585.999245 C612.3443,630.208704 655.2143,666.064062 674.3643,737.794477 C687.2743,784.258686 687.3133,832.821025 685.4143,880.595334 C685.0443,889.88325 685.0343,899.389845 684.2843,908.737849 C685.4043,915.731614 683.2743,929.965403 675.4143,930.221513 C675.5943,931.915777 676.1543,933.481986 677.0443,934.861038 C676.7943,935.194966 676.5343,935.511163 676.2643,935.836225 C675.8743,933.925253 675.4943,932.024131 675.1343,930.113158 C669.0143,903.004932 668.1943,871.552691 669.2143,842.691099 C669.6433,834.416785 656.9543,834.613793 656.2443,842.691099 C654.3343,864.509675 652.4243,886.328251 650.5143,908.136976 C648.2233,922.272262 651.8343,940.761412 640.5343,951.508168 C629.0443,940.889466 632.8443,919.947574 633.4043,906.245705 C634.3033,883.895209 635.2743,861.554563 636.1043,839.204067 C636.3643,832.121649 624.6343,830.29933 623.3033,837.499952 C619.5343,858.028129 615.4543,878.497204 611.0633,898.907177 C608.4143,906.797326 606.5943,942.199566 593.3543,936.052933 C585.4643,930.664779 591.1543,899.074633 590.1143,888.613537 C590.6043,867.908053 590.8933,847.232121 592.4143,826.575889 C593.0343,818.242473 579.4643,816.469406 577.6043,824.605814 C574.5843,837.775763 571.6943,850.945711 569.0743,864.204313 C563.3243,886.554809 565.4143,916.854556 544.6543,931.708919 C536.5243,873.650821 548.2233,815.996588 549.8643,758.145348 C548.8843,739.400088 545.6643,720.841985 542.8243,702.323284 C539.6843,681.844359 537.8543,659.552965 545.2043,639.802967 C543.1943,630.957332 535.2943,654.883888 534.5543,656.873664 C528.6043,645.15172 514.1143,644.245486 502.6543,640.590997 C477.1843,632.346235 451.0943,626.13065 425.3243,618.801972 C356.9833,599.820304 288.5633,581.134146 220.1243,562.48739 C192.7843,554.922304 164.0043,545.968315 143.7333,525.302232 M828.0843,834.121274 C818.6543,783.006704 818.9143,731.214428 822.9443,679.539372 C827.3743,599.396738 831.6743,519.234403 836.2743,439.101619 C856.2443,584.13851 877.5343,729.007945 893.8133,874.507803 C894.9733,884.633987 894.7943,895.351192 899.9043,904.383984 C871.6643,908.166528 841.5633,911.978622 814.1043,902.374508 C826.1543,881.54097 830.4043,857.821271 828.0843,834.121274 M970.7743,474.099994 C992.1243,611.561948 979.9443,751.437244 1000.6543,888.741592 C971.9243,891.962664 943.4143,896.730245 914.9833,901.970643 C918.0943,885.008301 912.1943,867.494338 911.1743,850.413791 C895.7333,728.583394 878.6843,606.833769 856.0943,486.068197 C850.5533,457.167203 844.9543,428.384413 838.5343,399.641025 C839.5043,382.235416 840.3543,364.829807 840.9143,347.413362 C872.2643,327.703751 907.6143,314.946533 944.1743,308.515225 C954.0533,363.559109 963.9243,418.563591 970.7743,474.099994 M723.6243,42.1414398 C722.3743,40.0039089 721.1843,37.8171261 720.0443,35.6007922 C723.9043,35.7485478 727.6643,35.886453 731.4643,36.5168769 C731.2943,42.6339585 731.6343,48.800292 731.7043,54.9666254 C729.8033,50.4551546 726.0843,46.3376987 723.6243,42.1414398 M1368.4443,903.566403 C1277.2543,837.253693 1127.4733,879.501942 1021.8343,886.3184 C1001.6943,754.253465 1009.9143,620.033269 991.1433,487.752611 C973.8543,355.600007 955.6243,221.605384 912.2043,94.9886906 C894.2843,46.0313521 863.2843,31.4931867 812.2443,31.8872016 C786.3443,30.8726132 758.9543,26.7256062 733.7843,27.3156435 C728.2643,27.4052819 722.4943,28.1342095 717.5143,30.3603938 C710.5143,14.5800964 706.7143,-2.36254507 704.7943,-19.4332414 C704.6743,-20.5167824 703.2943,-20.7137899 702.8843,-19.6795007 C696.9643,-4.81528793 696.3343,11.4082763 699.5533,26.9718655 C701.8843,38.1224877 715.7543,82.0058991 731.8643,64.8366991 C733.1433,100.839812 725.2333,143.83669 689.9643,162.522847 C628.3343,189.394665 543.1433,164.926338 507.4443,107.892679 C500.5443,96.4957977 494.5943,84.3690036 486.9543,73.4262243 C540.1843,58.3551537 570.0633,-5.42601106 557.5243,-53.9982 C549.7743,-16.2220198 535.6433,25.9868282 500.4543,47.1454293 C372.3133,46.8597685 265.7743,105.223228 205.5743,217.634699 C193.7943,233.957752 182.9043,250.919109 172.9243,268.177948 C167.5533,279.722585 151.8243,295.778693 165.1743,306.929315 C149.7543,348.084173 136.0743,389.809368 121.6143,431.290273 C117.6433,445.110346 108.5633,459.610095 110.3743,474.139395 C108.4143,483.093384 108.5043,493.682535 112.9943,502.291761 C117.2543,517.638642 126.8133,538.285024 142.6643,544.79612 C156.1143,557.079535 173.1243,565.541006 190.8643,571.914197 C143.5533,695.556078 125.5443,828.900577 109.5143,959.536222 C93.8033,1073.82025 85.6943,1212.83856 184.1343,1295.43295 C186.0443,1319.06498 200.0633,1349.17757 227.7843,1349.43368 C246.9833,1368.28631 270.3843,1357.94342 291.7543,1348.72446 C327.8243,1335.36637 365.6543,1327.95987 403.2443,1323.83158 C407.2743,1326.98468 413.8343,1326.46163 417.4243,1322.78843 C440.1943,1317.53818 471.7543,1338.79528 476.3543,1319.5378 C505.7143,1316.69006 534.7543,1311.35214 564.0843,1308.23844 C551.7233,1324.27583 552.6143,1347.92559 561.9243,1365.2524 C538.2143,1411.8949 593.4443,1438.90462 627.2143,1458.04291 C672.8033,1484.44191 720.4143,1509.49239 772.5533,1520.43517 C818.3933,1530.07869 866.4143,1527.15411 910.6433,1511.74813 C933.8843,1505.90587 966.3443,1486.72818 952.5533,1459.70861 C970.0343,1408.28966 847.2743,1355.009 811.1643,1329.25914 C825.9243,1327.4181 826.4643,1296.78246 788.0743,1314.38606 C783.4343,1311.2822 778.8743,1308.08083 774.3643,1304.82134 C929.6433,1286.97247 1226.1943,1237.86836 1338.5743,1131.72074 C1400.3133,1077.13982 1435.9343,966.736845 1368.4443,903.566403" id="Ink" fill="#000"/></g></g><g id="Head" transform="translate(345.000000, 180.000000) scale(0.9978902953586498 1)"><g id="Head/Twists" stroke="none" stroke-width="1" fill="none" fill-rule="evenodd"><path d="M67.9729,102.4005 C73.1589,96.8355 79.7919,92.6895 87.0429,91.3645 C80.4149,94.6755 73.9359,98.1265 67.9729,102.4005 Z M57.8149,150.3845 C56.8979,146.1435 56.2819,141.8615 56.0879,137.5805 C57.2469,139.3425 59.0979,140.5195 61.1769,141.1275 C59.8339,144.1345 58.6919,147.2325 57.8149,150.3845 Z M404.835051,216.877813 C398.849051,191.960813 370.921192,144.033657 364.320299,134.809034 C357.152299,111.968034 396.2459,93.6505 374.9849,75.7895 C365.3589,67.7305 352.6369,64.8785 340.7029,62.0205 C258.0729,42.1765 169.2949,52.1845 92.6589,88.6755 C81.0019,86.2225 68.8569,91.0165 60.3799,99.4365 C20.5549,139.4645 74.8289,211.6865 86.6969,256.8125 C107.0589,307.1295 65.1149,315.5935 69.6129,358.1665 C73.1079,380.1605 95.3849,385.9735 114.1839,389.2975 C117.1969,390.0025 121.2249,390.1085 122.1969,393.2935 C125.2429,411.8845 135.6849,429.6015 149.7039,441.6255 C148.4779,445.2575 149.4139,449.6665 153.7369,452.8565 C192.9049,481.9635 242.292016,496.529913 291.1439,493.9115 C349.361999,490.791067 379.4689,457.4225 386.7339,448.8305 C426.9029,394.5835 422.103119,323.0095 413.909119,258.3605 C408.201016,213.324721 415.439183,261.018001 404.835051,216.877813 Z" id="Skin" fill="#ae5d29"/><path d="M225.3217,9.5415 C227.1517,3.8215 232.3317,0.3815 238.2617,1.0915 C243.5117,1.7115 249.1317,6.9215 248.4917,12.6715 C248.3717,13.7815 248.2117,14.8215 248.0217,15.8015 L248.0467,15.81025 L248.0467,15.81025 L248.0717,15.8115 L247.9417,16.1915 C247.5517,18.0215 247.0117,19.6615 246.2117,21.2115 C245.1917,24.1815 244.2117,27.1615 243.2417,30.1515 C244.6417,30.0915 246.0717,30.1715 247.5217,30.4415 C249.0217,26.6015 250.5317,22.7715 252.0317,18.9215 C253.6417,14.8115 254.7717,9.5315 257.9517,6.3515 C262.0217,2.2915 269.0817,1.4515 274.0417,4.3515 C279.2817,7.4115 281.1517,12.8515 280.0117,18.6815 C279.43239,21.6552931 277.445422,23.7248294 274.986877,25.0251205 L274.7217,25.1615 L272.8317,29.6415 C273.4117,29.3915 274.0117,29.1615 274.6617,28.9715 C275.6817,28.6715 276.6817,28.4815 277.6617,28.4015 C280.3617,23.5115 283.3317,18.7615 286.4017,14.1015 C289.9317,8.7415 296.8317,6.4615 302.6217,9.8515 C307.8017,12.8815 310.5817,20.8415 306.8717,26.0715 C304.0517,30.0415 301.3817,34.0915 298.7517,38.1815 C299.2017,38.2615 299.6517,38.3615 300.0817,38.4915 C300.2817,38.2215 300.4917,37.9515 300.7117,37.6815 C303.5817,34.1215 306.9217,31.4515 310.3517,28.4915 C313.5617,25.7115 315.0417,21.3415 319.2617,19.2315 C324.5717,16.5815 330.9717,17.8515 334.1317,23.1315 C340.9117,34.4415 329.5317,42.7015 322.2517,49.5515 C328.5817,45.6015 335.1717,41.9915 341.9317,38.8715 C345.7317,37.1215 349.5917,35.4315 353.5117,33.9715 C359.3217,31.8115 364.0217,32.5025 368.7917,36.5215 C370.9217,38.3215 371.9817,42.2525 371.0017,44.8715 C369.1017,49.8915 366.1017,52.9415 360.8417,54.3915 C357.1417,55.4115 353.3517,56.1015 349.6517,57.1715 C343.4517,58.9515 337.4317,61.1215 331.5917,63.8315 C332.0117,64.0915 332.4117,64.3715 332.7817,64.6915 C337.1417,63.2815 341.5817,62.0615 346.0417,61.0215 C353.438575,59.287125 360.967286,58.11525 368.528956,57.3822788 L371.041055,57.1484247 C380.106521,56.2784643 391.007771,54.6729286 396.5717,63.3515 C398.4017,66.2115 398.6017,70.9315 396.5717,73.7615 C392.6917,79.2015 388.8317,80.2815 382.4117,80.3815 C388.7317,81.0515 395.0417,81.8815 401.3217,82.8515 C405.650271,83.5115 409.978843,84.2596633 414.288522,85.0896924 L416.4417,85.5115 C421.6917,86.5615 427.5517,87.1715 432.0617,90.2115 C441.9017,96.8515 437.2817,109.7815 426.3817,111.1615 C421.1117,111.8215 415.2617,109.5915 410.0917,108.5515 C405.0717,107.5415 400.0317,106.6515 394.9717,105.8715 C392.3517,105.4615 389.7317,105.1015 387.1017,104.7715 C392.4517,105.5415 397.7617,106.6315 402.9317,108.1715 L404.367786,108.60485 C414.362598,111.650948 427.853793,116.50243 430.9717,127.1815 C432.8617,133.6715 427.6917,139.3315 421.4317,139.7115 C415.6117,140.0615 410.7617,136.5915 405.8217,134.0315 C402.2217,132.1715 398.5617,130.7815 394.6817,129.5915 C390.6717,128.3615 386.5817,127.3415 382.4617,126.5115 C385.943518,128.429682 389.334427,130.537946 392.589348,132.896399 L394.085527,134.00174 C402.736936,140.447976 415.9295,150.4281 412.8817,162.5115 C411.9217,166.3215 407.6717,169.9615 403.5917,169.5715 C392.9717,168.5815 387.1117,157.2715 379.1017,151.2115 C377.0117,149.6315 374.7217,148.0715 372.3217,146.5515 C384.4617,161.0315 394.1217,177.7715 401.4717,195.0615 C417.625169,233.099357 422.580714,268.325487 422.69956,309.224756 L422.7017,310.4915 C422.7217,333.0515 422.2117,356.0215 420.0117,378.4815 C417.9717,399.2315 414.2317,419.7115 404.8217,438.5025 C389.0517,470.0115 358.3217,494.5515 324.4317,503.8915 C286.7217,514.2915 244.5717,506.1615 213.6817,482.1615 C205.8017,476.0415 216.2517,462.7525 224.3017,468.4015 C256.4517,490.9515 298.0317,498.0915 334.9317,482.8315 C364.2017,470.7315 387.7717,444.7015 397.7617,414.7315 C404.120396,395.665196 405.971648,375.335659 408.239817,355.465479 L408.3917,354.1415 C410.7917,333.3615 412.1817,312.4415 412.1617,291.5215 C412.1317,252.6715 406.5517,220.6915 389.4617,185.4515 C381.4217,168.8515 370.9917,153.5025 358.5317,140.0315 C354.7517,140.8015 350.7317,139.7215 346.9117,139.3115 C344.9617,139.1015 343.0117,138.9015 341.0617,138.7215 C343.0537,140.0095 345.0073,141.3487 346.92762,142.719132 L349.446292,144.535382 C357.327907,150.179865 367.327478,156.609056 365.3017,167.5215 C364.7517,170.4715 361.8117,173.1815 358.9617,173.8515 C348.6317,176.3115 341.5317,166.2715 334.5517,160.3115 C328.4817,155.1315 322.1317,150.4915 315.6617,145.8415 C314.1917,144.7915 312.7117,143.7415 311.2217,142.7015 C312.6217,144.3335 313.9833,145.9911 315.31162,147.66406 L317.275475,150.153141 C323.217958,157.588482 331.78436,167.252989 326.4917,176.8915 C324.9917,179.6115 321.7917,181.4215 318.6917,181.3615 C308.0317,181.1415 303.7917,169.0415 298.7917,161.4015 C294.4917,154.8515 289.8217,148.6815 284.9917,142.5115 C283.6617,140.8215 282.3217,139.1315 280.9617,137.4415 C258.5717,138.6015 236.2617,141.5615 214.3417,146.2915 C199.2817,149.5415 184.4717,153.7525 169.7717,158.3615 L168.550042,158.750131 C160.594514,161.311565 152.397554,164.589793 146.6617,170.2115 C145.8429,174.0847 146.471444,178.1695 147.25471,182.037622 L147.86518,184.998365 C150.3804,197.37905 152.0942,209.5305 150.8117,222.2415 C149.4817,235.3515 145.5317,247.1415 140.7117,259.3215 C138.4317,265.0615 136.0717,264.0215 135.2617,270.1815 C134.6412,274.8735 135.024975,279.717225 135.448849,284.448601 L135.803076,288.459623 C136.692069,298.966608 137.138469,310.421992 130.2517,319.0915 C129.1817,320.4215 126.8917,319.8915 126.1317,318.5615 C125.8317,318.0315 125.5117,317.5215 125.1617,317.0315 C121.8417,312.2215 116.7517,309.4815 110.9317,308.4215 C110.1917,308.2915 110.4817,307.3015 111.1017,307.2215 C116.0217,306.6415 120.6817,307.8715 124.6417,310.4115 C122.763793,303.917895 108.225529,307.075859 103.44629,308.337768 L103.2817,308.3815 C97.3217,309.9815 91.6817,312.5815 86.7117,316.2615 C76.7117,323.6615 70.9317,335.2015 71.2217,347.6315 C71.5117,359.8515 77.8217,371.1415 88.6617,376.9915 C93.8917,379.8115 99.8417,381.1715 105.7617,381.1115 C111.9417,381.0515 117.4417,378.3415 123.6317,378.7215 C127.2117,378.9415 129.9517,382.7815 127.8817,386.1315 C126.5017,388.3715 124.7017,390.1315 122.6217,391.4815 C127.6917,403.1715 134.1617,414.3215 141.6217,424.6115 C145.7517,430.3215 150.4317,435.5915 155.5817,440.4015 C159.6017,444.1615 168.3117,448.5115 167.8217,454.7815 C167.6517,457.0415 166.4817,458.4215 164.4217,459.2615 C158.017167,461.879767 150.229462,452.864234 145.945791,448.517885 L145.6017,448.1715 C140.2617,442.8515 135.3917,436.9715 131.1517,430.7315 C123.6317,419.6515 118.9617,407.1615 117.0317,394.0415 C106.7617,397.1315 93.1617,394.2315 84.7817,390.4415 C58.4417,378.5415 49.8317,343.0715 65.8417,319.4515 C68.9417,314.8815 72.8217,310.9715 77.2417,307.8115 C76.2717,307.2815 75.3617,306.6015 74.5517,305.7415 C70.0709308,300.981885 66.9030314,294.770716 63.7589571,289.046006 L63.3817,288.3615 C60.5905889,283.3215 57.9575025,278.202488 55.4894641,273.004463 L54.5717,271.0515 C49.0617,259.2015 44.2317,254.0215 40.3017,241.5615 C36.5217,229.5415 33.5417,217.2915 31.6117,204.8315 L31.098823,201.533414 C29.9826333,194.303411 28.9270333,186.572167 29.7417,179.2315 C24.1317,181.0615 18.4917,182.1915 12.9417,179.4415 C9.2817,177.6315 7.2617,172.3515 8.5117,168.5615 C9.4217,165.7715 10.9417,163.5815 12.8717,161.8615 C11.7217,161.2815 10.6417,160.5415 9.6917,159.7215 L8.8617,159.0025 L8.8617,159.0025 C5.5017,156.0815 5.2617,150.5315 7.3017,146.8715 C7.5017,146.5215 7.7017,146.1615 7.8917,145.8115 C9.8317,142.3415 13.8417,140.0715 17.8017,140.1315 C18.4417,140.1415 19.0817,140.1415 19.7317,140.1315 C17.8817,139.7215 16.0717,139.0915 14.3517,138.0315 C6.5917,133.2615 7.5717,120.3315 16.9617,118.0515 C20.9017,117.1015 25.2517,117.4915 29.5917,118.5115 C29.4317,118.4215 29.2717,118.3315 29.1117,118.2315 C25.8317,116.2215 23.0817,112.2915 23.3917,108.2615 C23.7317,103.8015 25.1717,100.6215 29.1117,98.2815 C32.5317,96.2615 37.3717,96.0715 40.7717,98.2815 C43.7217,100.2115 46.6117,102.3415 49.3917,104.6315 C46.6017,101.2015 44.1817,97.4715 43.2017,93.5115 C41.9917,88.5815 44.0117,83.2115 48.4517,80.6115 C51.9917,78.5415 55.7317,78.7715 59.0717,80.3715 C58.8917,77.7815 59.5217,75.1415 61.2417,72.8015 C64.7617,68.0025 71.1617,65.2415 76.7317,68.7415 C77.4617,69.2015 78.4417,69.9915 79.3917,70.9615 C77.5417,65.0715 79.2117,58.8915 85.5217,56.2315 C89.3717,54.6015 94.5817,55.4215 97.9217,58.2315 C95.8017,46.7615 112.7317,38.3315 119.3117,50.1815 C120.805033,52.8659444 122.282564,55.6926111 123.603826,58.5842435 L124.0917,59.6715 L124.1417,59.6515 L123.80545,58.8565 L123.80545,58.8565 L123.4617,58.0615 C121.6317,53.8115 119.3017,49.3915 118.6617,44.7815 C117.7217,37.9615 120.7617,31.4915 128.1817,30.4915 C132.0117,29.9715 136.2717,31.7115 138.8417,34.7525 C137.4517,24.1715 149.2717,16.4815 157.7817,24.3815 C161.8117,28.1215 163.9617,33.5915 166.5217,38.3915 C167.9717,41.1015 169.4517,43.8015 170.9017,46.5215 C171.2717,46.0815 171.6717,45.6415 172.0917,45.2115 C169.9417,38.7715 168.2717,32.1715 166.8617,25.5315 C165.5217,19.2715 168.6517,12.7715 175.1117,11.0025 C180.9817,9.3815 188.3317,13.0025 189.6417,19.2525 C190.5617,23.6515 191.6517,28.0025 192.8517,32.3315 C193.6717,32.1315 194.4817,31.9915 195.2817,31.8915 C195.348367,31.0781667 195.423922,30.2603889 195.508367,29.4470556 L195.823115,26.5543536 C196.52242,19.9449176 197.227753,12.3999211 200.6817,6.7815 C206.5717,-2.8185 221.6717,1.1615 221.8317,12.5115 C221.9217,18.3815 219.5317,24.2015 218.7017,30.0115 C218.3417,32.5415 218.1317,35.1015 218.0117,37.6615 C219.6217,29.1615 221.8317,20.7715 224.3917,12.5115 C224.6917,11.5215 225.0117,10.5315 225.3217,9.5415 Z M95.0416,337.3218 C108.2916,335.2718 120.4016,342.6618 128.2516,353.0118 C129.6816,354.9018 128.7416,357.5718 127.4516,359.1618 C126.5216,360.3318 125.2716,360.4718 123.8616,360.6518 C122.2416,360.8618 120.1916,359.5518 119.4816,358.1418 C114.4316,348.0618 105.4216,341.6918 95.0416,337.7718 C94.8516,337.7018 94.7916,337.3618 95.0416,337.3218 Z M113.409421,156.717337 L113.8107,156.2865 C116.4917,153.5055 112.2547,149.2575 109.5677,152.0445 C106.7387,154.9785 104.8587,158.5425 103.0507,162.1545 C101.3277,165.5985 106.5017,168.6405 108.2317,165.1835 L109.019473,163.612241 C110.255859,161.169068 111.574416,158.755335 113.409421,156.717337 L113.409421,156.717337 Z M76.1987,151.0095 C79.9987,150.3695 78.3877,144.5865 74.6037,145.2245 C69.7017,146.0505 64.8187,146.9895 59.9157,147.8165 C56.1167,148.4565 57.7277,154.2395 61.5117,153.6025 C66.4137,152.7755 71.2967,151.8365 76.1987,151.0095 Z M302.5667,111.5285 C298.8957,110.3035 297.3207,116.0965 300.9717,117.3145 C306.0167,118.9975 311.0207,120.7225 315.8067,123.0595 C319.2637,124.7475 322.3087,119.5745 318.8347,117.8785 C313.5817,115.3135 308.1047,113.3765 302.5667,111.5285 Z M75.3347,103.7525 C71.7497,102.3185 70.1927,108.1195 73.7397,109.5385 L86.6997,114.7215 L86.6997,114.7215 C90.2847,116.1555 91.8417,110.3555 88.2947,108.9365 L75.3347,103.7525 L75.3347,103.7525 Z M347.820662,89.6649702 L347.3477,89.3665 C344.0977,87.2605 341.0867,92.4525 344.3187,94.5475 C346.216167,95.7767 348.523056,96.6104156 350.26047,98.0746994 L350.6237,98.3985 C353.4297,101.0485 357.6807,96.8145 354.8667,94.1555 C352.80795,92.2120625 350.201641,91.1299531 347.820662,89.6649702 L347.820662,89.6649702 Z" id="Ink" fill="#000"/></g></g><g id="Face" transform="translate(504.000000, 366.000000) scale(1 1)" fill="#000"><g id="Face/Smile Big" stroke="none" stroke-width="1" fill="none" fill-rule="evenodd"><path d="M79.1996019,197.798966 C90.1214942,191.222404 130.944848,196.042976 163.01327,197.798966 C188.478595,199.193385 206.667356,196.429949 212.488767,200.348155 C225.641067,209.200546 219.252652,252.006116 196.589222,257.86012 C173.925792,263.714125 89.9129827,271.890526 75.4275085,257.86012 C60.9420343,243.829714 59.6047058,209.597931 79.1996019,197.798966 Z" id="teeth" fill="#FFF"/><path d="M93.3467129,186.476493 C110.488788,184.396013 127.104995,189.644043 143.862898,192.289481 C152.710839,193.685435 161.569756,194.727668 170.523469,195.115267 C172.32459,195.193982 174.126708,195.239817 175.928826,195.276684 C176.096465,193.690417 176.984552,192.233683 178.908408,191.360838 C182.851913,189.573299 186.008114,188.767213 190.337788,188.93959 C194.301251,189.096024 198.278683,189.503551 202.181276,190.217969 C209.268011,191.517272 216.386677,194.465615 221.570511,199.588099 C233.567668,211.441255 231.741602,230.480436 222.47157,243.39077 C203.319435,270.068282 168.364112,271.306425 138.426282,270.958393 L135.66356,270.922255 C108.404278,270.532663 69.4042864,274.596972 57.019963,243.583075 C52.465773,232.178299 53.0984103,218.959081 58.6743992,208.020619 C65.3250733,194.973778 79.3249167,188.178341 93.3467129,186.476493 Z M178.495298,230.894938 L178.250824,230.904902 C165.682896,231.389151 153.116964,231.72992 140.542051,231.952117 C140.918241,235.181444 141.302413,238.411767 141.741468,241.63412 C142.085726,244.169954 142.454931,246.702799 142.839103,249.232654 C143.001753,250.303783 143.598468,251.966772 143.429831,253.027936 L143.368962,253.44742 L143.368962,253.44742 C144.014571,253.739364 144.600309,254.209664 145.03637,254.892197 C145.188043,255.128344 145.297807,255.366483 145.407571,255.603626 C155.170541,255.680348 165.676909,255.491033 175.629471,253.716447 L175.649428,253.500229 L175.649428,253.500229 C175.830039,252.228824 176.358899,251.372918 177.061386,250.786039 C177.76088,246.731694 177.697017,242.411311 177.967435,238.38885 C178.136071,235.889883 178.318678,233.392909 178.495298,230.894938 Z M130.93774,232.123497 C121.87903,232.277607 112.816379,232.396289 103.759597,232.285698 L99.6481393,232.22214 L99.6481393,232.22214 C100.516269,236.880303 101.461234,241.522523 102.246542,246.211574 C103.065777,251.098909 98.7640436,254.205679 95.0410632,254.080133 C95.4591626,254.148884 95.8762641,254.219628 96.2943635,254.278416 C107.926308,255.92347 120.004291,255.487047 131.808863,255.474094 C131.173731,251.767293 131.431054,247.584788 131.336033,244.49078 L131.317921,244.011527 C131.13731,240.046857 131.010583,236.085177 130.93774,232.123497 Z M69.4062821,231.268587 C69.720605,233.690832 70.3322874,236.061264 71.2473164,238.268286 C75.1139873,247.592582 83.9788918,251.943854 93.3586871,253.776231 C91.7311928,253.214262 90.4389764,251.864142 90.1126792,249.551502 C89.299431,243.801286 89.0070608,237.955417 88.9851081,232.116522 C82.448189,232.055742 75.8673645,231.916246 69.4062821,231.268587 Z M212.584867,229.277783 C207.930891,230.375814 202.522541,229.872633 197.956377,230.079884 C193.678592,230.274182 189.398811,230.443569 185.121025,230.616943 C185.322591,233.537386 185.519168,236.456834 185.732708,239.375285 C186.008114,243.147649 186.034059,247.134239 186.756502,250.890661 C195.365957,247.952282 203.08034,243.240314 208.867873,235.705549 C210.309767,233.828335 211.600986,231.625298 212.584867,229.277783 Z M91.3799494,201.775194 C83.6326376,203.609563 76.3004317,207.484557 72.3599198,214.573932 C70.020958,218.780726 68.9921741,223.766703 69.1897485,228.679944 C75.7376439,227.917699 82.3982965,227.628744 89.0270178,227.389608 C89.0489705,226.195923 89.0771321,225.003566 89.1129808,223.813719 L89.2151053,220.764114 C89.3957906,214.947692 89.4865796,207.643706 91.3799494,201.775194 Z M131.479572,202.48463 L128.069104,202.101567 C118.596243,201.022247 109.128468,199.889225 99.6551242,200.538664 C98.2840775,200.633321 96.892076,200.782781 95.4970809,200.987043 C97.1714741,207.029203 97.0307772,214.125552 97.7302705,220.106932 C98.000688,222.419573 98.3419529,224.713282 98.7201382,226.998024 L100.363598,226.921301 L100.363598,226.921301 C110.528702,226.370293 120.703784,226.031517 130.876871,225.627976 C130.876122,223.71788 130.8866,221.806663 130.917143,219.894746 L130.954703,217.982611 C131.070454,213.099262 130.755133,207.598146 131.479572,202.48463 Z M179.049105,201.709432 C169.127476,203.310644 158.873564,203.651412 149.127558,203.663369 C145.234942,203.668351 141.344323,203.429215 137.455699,203.084462 C137.709153,205.154977 137.84087,207.249407 138.031459,209.291027 C138.415432,213.416914 138.854327,217.536423 139.331283,221.652107 L139.756743,225.25333 L139.756743,225.25333 C152.260808,224.686379 164.763876,224.073594 177.264948,223.438888 L179.029148,223.344231 L179.029148,223.344231 L179.523638,216.423284 C179.860246,211.808262 180.23056,207.194273 180.753433,202.600212 L180.361278,202.458723 L180.361278,202.458723 C179.900271,202.269408 179.463213,202.008351 179.049105,201.709432 Z M183.357823,203.427223 C183.904645,209.952636 184.206994,216.504952 184.609128,223.041325 L192.850339,222.601065 C194.223751,222.526187 195.597126,222.449797 196.970501,222.370749 C202.310997,222.062862 209.173215,220.445708 214.452843,221.954255 C214.855974,217.154604 213.48393,212.478506 209.152261,209.254161 C201.547641,203.590632 191.864499,205.607342 183.357823,203.427223 Z M155.2009,145.0937 C167.4729,138.0657 198.2639,130.8827 200.2139,152.9677 C201.11069,163.130663 193.55511,171.551452 184.732334,175.308984 L184.4009,175.4477 C176.1259,178.8497 161.4589,182.6917 154.2979,175.3147 C148.3379,169.1747 156.2429,158.1657 163.6489,163.1957 C167.454921,165.779721 175.466095,163.875752 179.713009,162.646215 L179.9789,162.5687 C184.5619,161.2217 190.6719,156.9107 188.7769,151.2677 C187.0999,146.2757 179.9639,145.3637 175.4949,145.2017 C168.8239,144.9627 162.3319,146.5117 155.7219,147.0157 C154.6749,147.0957 154.3519,145.5797 155.2009,145.0937 Z M206.0359,109.581 C222.6919,108.801 233.0529,126.987 229.2229,141.888 C228.5609,144.459 225.6849,146.983 222.9089,146.694 L222.209444,146.629632 C221.8541,146.59548 221.4971,146.5506 221.1689,146.46 C218.5329,145.73 216.1699,142.988 216.3619,140.146 L216.412906,139.317884 C216.801522,132.278753 216.038672,124.168709 207.6729,122.464 C200.5779,121.018 196.6169,127.847 196.5329,134.133 C196.5169,135.249 195.2629,136.028 194.2759,135.428 C189.1469,132.307 188.2589,126.098 190.2179,120.751 C192.7009,113.976 198.9149,109.914 206.0359,109.581 Z M82.4329,113.4814 C94.5539,109.4374 107.6309,115.8984 113.4999,126.6144 C115.5589,127.2104 117.6149,128.7974 117.3289,131.2274 C116.9159,134.7234 116.2939,136.9274 113.8699,139.5784 C110.078488,143.725503 102.977604,141.605092 101.401739,136.499971 L101.3349,136.2694 C99.5449,129.6704 92.2809,125.3164 85.6639,127.6264 C77.9339,130.3244 78.1579,138.4884 72.7359,143.2444 C72.0989,143.8034 71.3349,143.8924 70.5709,143.5234 C64.8119,140.7404 65.8469,132.3644 67.8999,127.5704 C70.5929,121.2794 75.8269,115.6844 82.4329,113.4814 Z M65.9254,76.6741 C75.7474,66.6521 101.3594,56.9541 108.0784,75.4611 C109.3584,78.9861 106.6334,83.7391 102.9634,84.4701 C96.9534,85.6661 91.6214,83.0571 85.6514,83.5251 C80.8184,83.9061 75.7774,85.5211 71.9134,88.5151 C61.2114,96.8071 58.8574,110.8321 51.4004,121.3861 C51.0374,121.9001 50.3324,121.6841 50.2654,121.0781 C48.5674,105.7131 55.1674,87.6501 65.9254,76.6741 Z M194.0206,66.8082 C200.5386,64.5062 207.9196,64.7032 214.4716,66.7452 C221.0716,68.8032 227.1306,72.7112 231.7986,77.8172 C233.9166,80.1352 235.8766,82.6932 237.4486,85.4162 C238.2836,86.8592 239.1616,89.8402 240.1106,91.6152 C245.245093,94.5796058 247.439689,101.334701 242.842821,106.140464 L242.6356,106.3512 L242.0206,106.9612 C239.5496,109.4072 235.8236,110.4672 232.4506,109.4902 C224.9026,107.3062 223.9856,101.3612 221.3726,95.0512 C219.6466,90.8832 216.6896,87.1952 213.1046,84.4862 C204.6316,78.0862 190.7386,76.0472 180.5376,79.0632 C179.9946,79.2242 179.3566,78.5322 179.7436,78.0302 C181.6766,75.5262 182.7906,73.4712 185.3786,71.4512 C188.0056,69.4012 190.8726,67.9202 194.0206,66.8082 Z" id="Ink" fill="#000"/></g></g><g id="Beard" transform="translate(468.000000, 518.000000) scale(1 1)" fill="#000"><g id="Beard/None" stroke="none" stroke-width="1" fill="none" fill-rule="evenodd" fill-opacity="0"/></g><g id="Mask" transform="translate(370.000000, 480.000000) scale(1 1)" fill="#000"><g id="Mask/None" stroke="none" stroke-width="1" fill="none" fill-rule="evenodd" fill-opacity="0"/></g><g id="Accessories" transform="translate(392.000000, 421.000000) scale(1 1)" fill="#000"><g id="Accessories/Glasses" stroke="none" stroke-width="1" fill="none" fill-rule="evenodd"><path d="M389.0901,63.2824 C379.5561,127.7714 313.0021,134.9034 301.1771,70.8814 C303.0751,70.0504 304.4401,68.4144 304.1551,65.2384 C304.0881,51.2864 308.4191,36.5404 321.0051,28.7814 C334.0111,20.7754 349.2321,19.9814 364.2831,20.1834 C393.0051,19.4994 392.4011,43.5064 389.0901,63.2824 M290.7581,35.2354 C281.7441,34.8554 270.3401,35.1734 262.2651,40.6654 C260.0451,34.6874 254.2771,28.3044 248.4491,24.8914 C270.1111,25.5254 292.4091,23.3934 314.2331,21.7384 C309.0091,25.2994 304.1491,30.6494 300.9901,36.8344 C298.0591,35.2714 293.8611,35.4174 290.7581,35.2354 M251.0261,70.1194 C226.0311,156.1554 163.6401,118.6554 156.8381,107.6294 C144.5691,89.3834 142.2611,45.0294 152.9481,33.1704 C168.2461,22.4464 189.9031,25.2064 207.9751,24.9434 C241.1761,25.3914 264.7561,35.3234 251.0261,70.1194 M418.6031,30.5484 C411.8121,29.6604 404.5551,29.4814 398.2411,32.4714 C396.2971,24.2084 390.1941,17.3004 383.3031,14.2604 C382.4691,13.2144 382.5941,12.6524 379.7451,12.8094 C362.2501,7.5514 342.6731,10.3334 325.8611,15.7254 C299.3091,17.9614 271.4521,19.7244 244.6771,22.8054 C219.5951,11.5414 143.9021,9.8904 139.1981,37.6534 C133.2811,36.7684 123.2041,32.1114 118.2321,38.4284 C81.7611,32.2454 44.0761,40.8384 7.4471,44.6654 C-1.7729,46.3634 -6.5219,64.6614 3.9441,64.4114 C9.8281,62.8144 3.7631,53.0174 11.6861,52.2804 C47.0271,48.4204 81.5951,42.9444 117.2981,42.3034 C116.0561,48.4684 140.9121,48.8694 141.2791,45.2694 C141.3321,45.2964 141.3881,45.3144 141.4421,45.3384 C135.3001,68.2284 140.8441,101.1704 151.9441,115.3644 C167.4961,133.9504 206.5411,139.2824 223.8541,127.3244 C246.1871,116.2874 269.4201,60.8854 262.8941,42.4794 C274.7381,38.7254 286.4471,39.8524 298.7391,41.7644 C295.9251,49.7134 291.0671,69.2814 298.0561,70.9784 C296.7731,109.8284 332.1301,134.0694 364.7241,118.1324 C392.9351,104.8894 402.8011,62.9714 399.3491,37.5284 C402.8611,44.3144 432.3491,36.9264 418.6031,30.5484" id="Ink" fill="#000"/></g></g></g></svg>